<?xml version="1.0" encoding="utf-8"?>
<!-- Generator: Adobe Illustrator 24.0.0, SVG Export Plug-In . SVG Version: 6.00 Build 0)  -->
<svg version="1.1" id="Layer_1" xmlns="http://www.w3.org/2000/svg" xmlns:xlink="http://www.w3.org/1999/xlink" x="0px" y="0px"
	 viewBox="0 0 73 73.6" style="enable-background:new 0 0 73 73.6;" xml:space="preserve">
<style type="text/css">
	.st0{fill:#213355;}
	.st1{fill:#FFFFFF;}
</style>
<g>
	<g>
		<g id="XMLID_1_">
			<g>
				<path class="st0" d="M36.5,0.6C56.6,0.6,73,17,73,37.1S56.6,73.6,36.5,73.6S0,57.2,0,37.1S16.4,0.6,36.5,0.6z M70.5,37.1
					c0-18.8-15.2-34-34-34c-18.8,0-34,15.2-34,34s15.2,34,34,34C55.3,71.1,70.5,55.9,70.5,37.1z"/>
				<path class="st0" d="M36.5,3.1c18.8,0,34,15.2,34,34s-15.2,34-34,34c-18.8,0-34-15.2-34-34S17.7,3.1,36.5,3.1z M68,37.1
					C68,19.8,53.9,5.6,36.5,5.6C19.1,5.6,5,19.8,5,37.1s14.1,31.5,31.5,31.5C53.9,68.6,68,54.5,68,37.1z"/>
				<path class="st0" d="M53.6,20c4.6,4.6,7.1,10.6,7.1,17.1c0,6.5-2.5,12.5-7.1,17.1c-3.1,3.1-6.9,5.2-11,6.3
					c-0.6,0.6-1.2,1.2-1.8,1.8c-1.2,1.3-2.7,1.8-4.4,1.7c-2.5-0.1-4.8-1-7-2c-4.9-2.4-9.1-5.7-12.6-9.9c-2.6-3.1-4.7-6.5-6.2-10.3
					C10,39.9,9.5,38,9.7,36c0.1-1.2,0.6-2.3,1.4-3.1c0.7-0.7,1.4-1.4,2.1-2.1c1.1-4.1,3.2-7.8,6.3-10.8c4.6-4.6,10.6-7.1,17.1-7.1
					C43,12.9,49.1,15.4,53.6,20z M44.5,57.5c8.2-3.2,14-11.1,14-20.4c0-8.7-5.1-16.2-12.4-19.7c-2.9-1.4-6.1-2.2-9.5-2.2
					c-9.3,0-17.2,5.8-20.4,14c0.7,0,1.3,0.3,1.9,0.9c0.8,0.8,1.5,1.5,2.3,2.3c0.8,0.7,1.5,1.5,2.2,2.2c1.3,1.3,1.3,2.9,0,4.2
					c-0.9,1-1.9,1.9-2.8,2.8c-0.3,0.2-0.3,0.4-0.1,0.7c0.6,1.5,1.5,2.9,2.6,4.1c2,2.5,4.4,4.8,7.1,6.5c0.6,0.4,1.3,0.6,1.9,1
					c0.3,0.2,0.5,0.1,0.8-0.1c0.9-1,1.9-1.9,2.8-2.9c0.9-0.9,2-1.2,3.1-0.7c0.4,0.2,0.7,0.4,1,0.7c1.5,1.5,3.1,3,4.6,4.6
					C44.1,56.1,44.5,56.8,44.5,57.5z"/>
				<path class="st1" d="M36.5,5.6C53.9,5.6,68,19.8,68,37.1S53.9,68.6,36.5,68.6C19.1,68.6,5,54.5,5,37.1S19.1,5.6,36.5,5.6z
					 M60.7,37.1c0-6.4-2.5-12.5-7.1-17.1c-4.6-4.6-10.6-7.1-17.1-7.1c-6.5,0-12.5,2.5-17.1,7.1c-3,3.1-5.2,6.8-6.3,10.8
					c-0.7,0.7-1.4,1.4-2.1,2.1c-0.9,0.9-1.4,1.9-1.4,3.1c-0.1,2,0.3,3.9,1,5.7c1.4,3.8,3.6,7.2,6.2,10.3c3.5,4.2,7.7,7.5,12.6,9.9
					c2.2,1.1,4.5,1.9,7,2c1.7,0.1,3.2-0.3,4.4-1.7c0.6-0.6,1.2-1.2,1.8-1.8c4.1-1.1,7.9-3.2,11-6.3C58.2,49.6,60.7,43.5,60.7,37.1z"
					/>
				<path class="st1" d="M58.5,37.1c0,9.3-5.8,17.2-14,20.4c0-0.7-0.3-1.4-1-2c-1.5-1.5-3.1-3.1-4.6-4.6c-0.3-0.3-0.6-0.5-1-0.7
					v-1.4h0.4h0.1h2.5c0.4,0,0.6-0.1,0.8-0.4h0l0.4,0.4h1.9c0.3,0,0.6-0.1,0.8-0.4h0l0.4,0.4h1.9c0.3,0,0.5-0.1,0.8-0.3
					c0.2-0.2,0.3-0.5,0.3-0.8v-2.9H47v2.7c0,0.1,0,0.1-0.1,0.1h-1.7c0-0.1,0-0.3,0-0.4v-2h-1.3v2.2c0,0.1,0,0.1-0.1,0.1H42v-0.1
					c0-0.2,0-0.3,0-0.4v-1.4h-1.3v1.7c0,0.1,0,0.1-0.1,0.1h-2.1h-0.1h-0.3c0,0-0.1,0-0.1-0.1h0c0,0,0,0,0-0.1v-4.9h-1.3v5.1h-1v0
					h-1.6c-0.3,0-0.6-0.1-0.8-0.3c-0.1-0.2-0.2-0.4-0.2-0.7c0-0.6,0.3-0.9,1-0.9c0.3,0,0.5,0,0.8,0.1v-1c-0.3-0.1-0.7-0.2-1-0.2h0h0
					c-0.5,0-1,0.1-1.4,0.4c-0.5,0.4-0.7,0.8-0.7,1.5c0,0.2,0,0.4,0.1,0.7c0,0.2,0.1,0.3,0.2,0.4h-1.5h-0.1h-0.2c0,0-0.1,0-0.1,0
					c0,0,0,0,0-0.1v-2.9h-0.7l0-0.3c0.2,0,0.4-0.1,0.5-0.2c0.1-0.1,0.2-0.3,0.2-0.5c0-0.2-0.1-0.3-0.2-0.5c-0.1-0.1-0.3-0.2-0.5-0.2
					v-1.2h5.8l1.2-1.5v-1h-5l1.4-1.4c0.1,0,0.4-0.4,0.9-1.1c0.9-1.1,1.5-2,1.9-2.7c0.3-0.7,0.5-1.4,0.5-2.1c0-1.1-0.3-2-0.9-2.7
					c-0.7-0.8-1.7-1.2-3-1.2v-2.5h1.3c0.3,0,0.5-0.1,0.7-0.3c0.3,0.4,0.7,0.5,1.2,0.5c0.6,0,1-0.2,1.4-0.7c0.2-0.2,0.3-0.5,0.4-0.8
					l0.9,0v1.2h2.8c0.3,0,0.5-0.1,0.7-0.3c0,0,0.1-0.1,0.1-0.2h0l0.3,0.4h0.1h0.1h4.1c0.3,0,0.6-0.1,0.8-0.3
					c0.2-0.2,0.3-0.5,0.3-0.8v-0.9c0-0.6-0.2-1.1-0.7-1.5c-0.5-0.4-1.1-0.7-1.8-0.7l0-0.5c0.2,0,0.4-0.1,0.5-0.2
					c0.1-0.1,0.2-0.3,0.2-0.5c0-0.2-0.1-0.4-0.2-0.5c-0.1-0.1-0.3-0.2-0.5-0.2l1-2.1C53.4,20.9,58.5,28.4,58.5,37.1z M46.8,38.7
					v-2.4h-1.4v-8.1h-2.7l-5.3,8.6v1.9h5.1v3.1h1.3l1.5-1.3v-1.7H46.8z"/>
				<path class="st0" d="M48.3,44.8v2.9c0,0.3-0.1,0.5-0.3,0.8c-0.2,0.2-0.5,0.3-0.8,0.3h-1.9l-0.4-0.4h0c-0.2,0.3-0.5,0.4-0.8,0.4
					h-1.9l-0.4-0.4h0c-0.2,0.3-0.5,0.4-0.8,0.4h-2.5h-0.1h-0.4h-0.2c-0.3,0-0.5-0.1-0.7-0.3c-0.2-0.2-0.3-0.5-0.3-0.8v-5.1H38v4.9
					c0,0,0,0,0,0.1h0c0,0,0,0.1,0.1,0.1h0.3h0.1h2.1c0.1,0,0.1,0,0.1-0.1v-1.7H42v1.4c0,0.1,0,0.2,0,0.4v0.1h1.7
					c0.1,0,0.1,0,0.1-0.1v-2.2h1.3v2c0,0.1,0,0.2,0,0.4h1.7c0.1,0,0.1,0,0.1-0.1v-2.7H48.3z"/>
				<path class="st0" d="M47.4,23.5v0.9c0,0.3-0.1,0.6-0.3,0.8c-0.2,0.2-0.5,0.3-0.8,0.3h-4.1h-0.1h-0.1l-0.3-0.4h0
					c-0.1,0.1-0.1,0.1-0.1,0.2c-0.2,0.2-0.4,0.3-0.7,0.3h-2.8v-1.2h2.4c0.1,0,0.1,0,0.1-0.1v-0.6c0-0.4-0.1-0.7-0.3-0.9
					c-0.2-0.2-0.5-0.4-0.9-0.4c-0.2,0-0.3,0-0.4,0v-1.1c0.2,0,0.4-0.1,0.7-0.1c0.7,0,1.3,0.2,1.8,0.7c0.4,0.4,0.6,0.9,0.6,1.6V24
					c0,0.2,0,0.3,0,0.4h0.2h0.1h3.7c0.1,0,0.1,0,0.1-0.1v-0.6c0-0.4-0.2-0.7-0.5-0.9c-0.3-0.2-0.6-0.3-0.9-0.3
					c-0.3,0-0.7,0.1-1.2,0.2v-1.1c0.6-0.2,1.1-0.3,1.5-0.3c0,0,0.1,0,0.1,0c0.7,0,1.3,0.3,1.8,0.7C47.2,22.4,47.4,22.9,47.4,23.5z"
					/>
				<path class="st0" d="M46.8,36.2v2.4h-1.4v1.7l-1.5,1.3h-1.3v-3.1h-5.1v-1.9l5.3-8.6h2.7v8.1H46.8z M42.6,36.2V32l-2.5,4.2H42.6z
					"/>
				<path class="st1" d="M46.1,23.7v0.6c0,0.1,0,0.1-0.1,0.1h-3.7h-0.1H42c0-0.1,0-0.2,0-0.4v-0.4c0-0.6-0.2-1.2-0.6-1.6
					c-0.5-0.5-1-0.7-1.8-0.7c-0.3,0-0.5,0-0.7,0.1v1.1c0.1,0,0.2,0,0.4,0c0.4,0,0.7,0.1,0.9,0.4c0.2,0.2,0.3,0.5,0.3,0.9v0.6
					c0,0.1,0,0.1-0.1,0.1h-2.4l-0.9,0c0.1-0.3,0.1-0.6,0.1-1c0-0.8-0.3-1.3-0.8-1.7c-0.4-0.3-0.8-0.4-1.3-0.4c-0.6,0-1,0.1-1.4,0.4
					c-0.4,0.3-0.6,0.7-0.6,1.2v1.3c0,0,0,0.1,0,0.1c0,0-0.1,0-0.1,0h-1.4h-0.1h-0.3c0,0-0.1,0-0.1,0c0,0,0-0.1,0-0.1v-3.1h-0.7
					l-0.4,0.3c-0.3-0.1-0.6-0.2-0.9-0.2c-0.6,0-1,0.2-1.4,0.6c-0.4,0.4-0.6,1-0.6,1.6c0,0.5,0.1,1,0.4,1.4c0.3,0.5,0.8,0.7,1.4,0.7
					h0c0.4,0,0.8-0.2,1.1-0.4c0.3,0.2,0.5,0.4,0.8,0.4h0.6h0.1h0.5V28c-1.3,0-2.5,0.4-3.7,1.2l1.4,2c0.6-0.4,1.2-0.6,1.8-0.6
					c1.2,0,1.8,0.5,1.8,1.4c0,0.6-0.2,1.3-0.6,1.9c-0.4,0.7-1.2,1.6-2.3,2.8L29.5,38l-1.4,1.3v2.5h1.4v1.2c-0.2,0-0.3,0.1-0.5,0.2
					c-0.1,0.1-0.2,0.3-0.2,0.5c0,0.2,0.1,0.3,0.2,0.5c0.1,0.1,0.3,0.2,0.5,0.2l0,0.3l-0.4,0.3c-0.3-0.1-0.6-0.2-0.9-0.2
					c-0.5,0-1,0.2-1.4,0.6c-0.4,0.4-0.6,0.9-0.6,1.6c0,0.5,0.1,1,0.4,1.3c0.3,0.5,0.8,0.7,1.3,0.7h0h0c0.4,0,0.7-0.1,1-0.4
					c0.2,0.2,0.5,0.3,0.8,0.3h0.6h0.1h4.6l0.5-0.7v-0.4h1c0,0.3,0.1,0.5,0.3,0.8c0.2,0.2,0.5,0.3,0.7,0.3h0.2v1.4
					c-1-0.5-2.1-0.2-3.1,0.7c-1,1-1.9,1.9-2.8,2.9c-0.3,0.3-0.5,0.3-0.8,0.1c-0.6-0.3-1.3-0.6-1.9-1c-2.8-1.7-5.1-4-7.1-6.5
					c-1-1.3-1.9-2.6-2.6-4.1c-0.1-0.3-0.1-0.5,0.1-0.7c1-0.9,1.9-1.9,2.8-2.8c1.3-1.3,1.3-2.8,0-4.2c-0.7-0.8-1.5-1.5-2.2-2.2
					c-0.8-0.8-1.5-1.5-2.3-2.3c-0.6-0.6-1.3-0.9-1.9-0.9c3.2-8.2,11.1-14,20.4-14c3.4,0,6.6,0.8,9.5,2.2l-1,2.1
					c-0.2,0-0.4,0.1-0.5,0.2c-0.1,0.1-0.2,0.3-0.2,0.5c0,0.2,0.1,0.4,0.2,0.5c0.1,0.1,0.3,0.2,0.5,0.2l0,0.5c0,0,0,0-0.1,0
					c-0.4,0-1,0.1-1.5,0.3v1.1c0.5-0.1,0.9-0.2,1.2-0.2c0.4,0,0.7,0.1,0.9,0.3C45.9,23,46.1,23.3,46.1,23.7z M31.3,20.1
					c0-0.2-0.1-0.3-0.2-0.5c-0.1-0.1-0.3-0.2-0.5-0.2c-0.2,0-0.4,0.1-0.5,0.2c-0.1,0.1-0.2,0.3-0.2,0.5c0,0.2,0.1,0.4,0.2,0.5
					c0.1,0.1,0.3,0.2,0.5,0.2c0.2,0,0.4-0.1,0.5-0.2C31.3,20.5,31.3,20.3,31.3,20.1z M29.7,20.1c0-0.2-0.1-0.3-0.2-0.5
					c-0.1-0.1-0.3-0.2-0.5-0.2c-0.2,0-0.4,0.1-0.5,0.2c-0.1,0.1-0.2,0.3-0.2,0.5c0,0.2,0.1,0.4,0.2,0.5c0.1,0.1,0.3,0.2,0.5,0.2
					c0.2,0,0.4-0.1,0.5-0.2C29.7,20.5,29.7,20.3,29.7,20.1z M28.6,43.6c0-0.2-0.1-0.3-0.2-0.5c-0.1-0.1-0.3-0.2-0.5-0.2
					c-0.2,0-0.3,0.1-0.5,0.2c-0.1,0.1-0.2,0.3-0.2,0.5c0,0.2,0.1,0.3,0.2,0.5c0.1,0.1,0.3,0.2,0.5,0.2c0.2,0,0.4-0.1,0.5-0.2
					C28.6,43.9,28.6,43.8,28.6,43.6z"/>
				<path class="st0" d="M45.5,19.6c0.1,0.1,0.2,0.3,0.2,0.5c0,0.2-0.1,0.4-0.2,0.5c-0.1,0.1-0.3,0.2-0.5,0.2
					c-0.2,0-0.4-0.1-0.5-0.2c-0.1-0.1-0.2-0.3-0.2-0.5c0-0.2,0.1-0.3,0.2-0.5c0.1-0.1,0.3-0.2,0.5-0.2
					C45.2,19.4,45.4,19.5,45.5,19.6z"/>
				<polygon class="st1" points="42.6,32 42.6,36.2 40.1,36.2 				"/>
				<path class="st0" d="M37.3,23.4c0,0.4,0,0.7-0.1,1c-0.1,0.3-0.2,0.5-0.4,0.8c-0.4,0.5-0.8,0.7-1.4,0.7c-0.5,0-0.9-0.2-1.2-0.5
					c-0.2,0.2-0.5,0.3-0.7,0.3h-1.3h-0.5h-0.1h-0.6c-0.3,0-0.6-0.1-0.8-0.4c-0.3,0.3-0.6,0.4-1.1,0.4h0c-0.6,0-1.1-0.3-1.4-0.7
					c-0.3-0.4-0.4-0.9-0.4-1.4c0-0.6,0.2-1.2,0.6-1.6c0.4-0.4,0.9-0.6,1.4-0.6c0.3,0,0.6,0.1,0.9,0.2l0.4-0.3h0.7v3.1
					c0,0,0,0.1,0,0.1c0,0,0.1,0,0.1,0h0.3h0.1h1.4c0,0,0.1,0,0.1,0c0,0,0-0.1,0-0.1V23c0-0.5,0.2-0.9,0.6-1.2
					c0.3-0.3,0.8-0.4,1.4-0.4c0.5,0,0.9,0.1,1.3,0.4C37.1,22.1,37.3,22.6,37.3,23.4z M36,23.5c0-0.4-0.1-0.6-0.2-0.8
					c-0.1-0.2-0.3-0.3-0.5-0.3c-0.2,0-0.3,0.1-0.4,0.2c-0.1,0.1-0.1,0.2-0.1,0.4v1.4c0.1,0.2,0.3,0.3,0.5,0.3c0.2,0,0.4-0.1,0.5-0.3
					C35.9,24.1,36,23.9,36,23.5z M29.9,24.5v-1.9c-0.1,0-0.3-0.1-0.4-0.1c-0.3,0-0.5,0.1-0.6,0.3s-0.2,0.4-0.2,0.7
					c0,0.3,0.1,0.6,0.3,0.7c0.2,0.2,0.4,0.3,0.6,0.3C29.7,24.5,29.8,24.5,29.9,24.5z"/>
				<path class="st0" d="M36.4,39.3v1l-1.2,1.5h-5.8h-1.4v-2.5l1.4-1.3l1.2-1.3c1.1-1.2,1.9-2.1,2.3-2.8c0.4-0.6,0.6-1.3,0.6-1.9
					c0-1-0.6-1.4-1.8-1.4c-0.6,0-1.2,0.2-1.8,0.6l-1.4-2c1.2-0.8,2.4-1.2,3.7-1.2c1.3,0,2.3,0.4,3,1.2c0.6,0.7,0.9,1.6,0.9,2.7
					c0,0.7-0.2,1.4-0.5,2.1c-0.3,0.7-1,1.6-1.9,2.7c-0.5,0.7-0.8,1.1-0.9,1.1l-1.4,1.4H36.4z"/>
				<path class="st1" d="M35.8,22.7c0.1,0.2,0.2,0.5,0.2,0.8c0,0.3-0.1,0.6-0.2,0.8c-0.1,0.2-0.3,0.3-0.5,0.3
					c-0.2,0-0.4-0.1-0.5-0.3V23c0-0.1,0-0.3,0.1-0.4c0.1-0.1,0.2-0.2,0.4-0.2C35.5,22.5,35.6,22.5,35.8,22.7z"/>
				<path class="st0" d="M35.7,47.7v0.4l-0.5,0.7h-4.6h-0.1h-0.6c-0.3,0-0.6-0.1-0.8-0.3c-0.3,0.3-0.6,0.4-1,0.4h0h0
					c-0.6,0-1-0.2-1.3-0.7c-0.3-0.4-0.4-0.8-0.4-1.3c0-0.6,0.2-1.1,0.6-1.6c0.4-0.4,0.8-0.6,1.4-0.6c0.3,0,0.6,0.1,0.9,0.2l0.4-0.3
					h0.7v2.9c0,0,0,0.1,0,0.1c0,0,0.1,0,0.1,0h0.2h0.1h1.5c-0.1-0.1-0.1-0.2-0.2-0.4c-0.1-0.2-0.1-0.5-0.1-0.7
					c0-0.6,0.2-1.1,0.7-1.5c0.4-0.3,0.8-0.4,1.4-0.4h0h0c0.3,0,0.7,0.1,1,0.2v1c-0.3-0.1-0.6-0.1-0.8-0.1c-0.7,0-1,0.3-1,0.9
					c0,0.3,0.1,0.5,0.2,0.7c0.2,0.2,0.4,0.3,0.8,0.3L35.7,47.7L35.7,47.7z M28.8,47.7v-1.8c-0.1,0-0.3,0-0.4,0
					c-0.3,0-0.4,0.1-0.6,0.3c-0.1,0.2-0.2,0.4-0.2,0.7c0,0.3,0.1,0.5,0.2,0.7s0.4,0.3,0.6,0.3C28.6,47.7,28.7,47.7,28.8,47.7z"/>
				<path class="st0" d="M31.1,19.6c0.1,0.1,0.2,0.3,0.2,0.5c0,0.2-0.1,0.4-0.2,0.5c-0.1,0.1-0.3,0.2-0.5,0.2
					c-0.2,0-0.4-0.1-0.5-0.2c-0.1-0.1-0.2-0.3-0.2-0.5c0-0.2,0.1-0.4,0.2-0.5c0.1-0.1,0.3-0.2,0.5-0.2C30.8,19.4,31,19.5,31.1,19.6z
					"/>
				<path class="st0" d="M30,43.1c0.1,0.1,0.2,0.3,0.2,0.5c0,0.2-0.1,0.3-0.2,0.5c-0.1,0.1-0.3,0.2-0.5,0.2c-0.2,0-0.3-0.1-0.5-0.2
					c-0.1-0.1-0.2-0.3-0.2-0.5c0-0.2,0.1-0.4,0.2-0.5c0.1-0.1,0.3-0.2,0.5-0.2C29.7,42.9,29.8,43,30,43.1z"/>
				<path class="st1" d="M29.9,22.5v1.9c-0.1,0-0.3,0.1-0.4,0.1c-0.3,0-0.5-0.1-0.6-0.3c-0.2-0.2-0.3-0.4-0.3-0.7
					c0-0.3,0.1-0.6,0.2-0.7s0.4-0.3,0.6-0.3C29.7,22.5,29.8,22.5,29.9,22.5z"/>
				<path class="st0" d="M29.5,19.6c0.1,0.1,0.2,0.3,0.2,0.5c0,0.2-0.1,0.4-0.2,0.5c-0.1,0.1-0.3,0.2-0.5,0.2
					c-0.2,0-0.4-0.1-0.5-0.2c-0.1-0.1-0.2-0.3-0.2-0.5c0-0.2,0.1-0.4,0.2-0.5c0.1-0.1,0.3-0.2,0.5-0.2
					C29.2,19.4,29.4,19.5,29.5,19.6z"/>
				<path class="st1" d="M28.8,45.9v1.8c-0.1,0-0.3,0-0.3,0c-0.3,0-0.5-0.1-0.6-0.3s-0.2-0.4-0.2-0.7c0-0.3,0.1-0.5,0.2-0.7
					c0.1-0.2,0.3-0.3,0.6-0.3C28.6,45.8,28.7,45.8,28.8,45.9z"/>
				<path class="st0" d="M28.4,43.1c0.1,0.1,0.2,0.3,0.2,0.5c0,0.2-0.1,0.3-0.2,0.5c-0.1,0.1-0.3,0.2-0.5,0.2
					c-0.2,0-0.3-0.1-0.5-0.2c-0.1-0.1-0.2-0.3-0.2-0.5c0-0.2,0.1-0.4,0.2-0.5c0.1-0.1,0.3-0.2,0.5-0.2C28.1,42.9,28.3,43,28.4,43.1z
					"/>
			</g>
		</g>
	</g>
</g>
</svg>
