<?xml version="1.0"?>
<svg xmlns="http://www.w3.org/2000/svg" id="Capa_1" enable-background="new 0 0 512 512" height="512px" viewBox="0 0 512 512" width="512px" class=""><g><g><path d="m202.717 195.545c0-4.143-3.357-7.5-7.5-7.5h-94.805c-4.143 0-7.5 3.357-7.5 7.5s3.357 7.5 7.5 7.5h94.805c4.143 0 7.5-3.357 7.5-7.5z" data-original="#000000" class="active-path" data-old_color="#000000" fill="#12284C"/><path d="m115.413 223.679c-4.143 0-7.5 3.357-7.5 7.5s3.357 7.5 7.5 7.5h64.805c4.143 0 7.5-3.357 7.5-7.5s-3.357-7.5-7.5-7.5z" data-original="#000000" class="active-path" data-old_color="#000000" fill="#12284C"/><path d="m468.469 185.078c-4.143 0-7.5 3.357-7.5 7.5v311.922c0 4.143 3.357 7.5 7.5 7.5s7.5-3.357 7.5-7.5v-311.922c0-4.142-3.357-7.5-7.5-7.5z" data-original="#000000" class="active-path" data-old_color="#000000" fill="#12284C"/><path d="m413.296.383h-70.249c-34.558 0-62.673 28.115-62.673 62.674v386.271c0 10.848-8.825 19.673-19.673 19.673h-71.713c-10.848 0-19.673-8.825-19.673-19.673v-38.468h14.866c12.421 0 22.525-10.104 22.525-22.525v-12.856c30.454-8.399 52.893-36.328 52.893-69.416v-25.826c0-4.143-3.357-7.5-7.5-7.5s-7.5 3.357-7.5 7.5v25.826c0 31.437-25.575 57.013-57.012 57.013h-79.546c-31.437 0-57.012-25.576-57.012-57.013v-138.653h193.569v82.839c0 4.143 3.357 7.5 7.5 7.5s7.5-3.357 7.5-7.5v-84.788c0-7.196-5.854-13.051-13.05-13.051h-2.521v-12.936c0-10.124-8.237-18.361-18.361-18.361h-12.898v-99.572c.001-11.878-9.662-21.541-21.54-21.541-11.877 0-21.54 9.663-21.54 21.541v99.572h-43.745v-99.572c0-11.878-9.663-21.541-21.54-21.541-11.878 0-21.541 9.663-21.541 21.541v22.978c0 4.143 3.357 7.5 7.5 7.5s7.5-3.357 7.5-7.5v-22.978c0-3.606 2.935-6.541 6.541-6.541s6.54 2.935 6.54 6.541v99.571h-13.081v-46.606c0-4.143-3.357-7.5-7.5-7.5s-7.5 3.357-7.5 7.5v46.607h-12.899c-10.124 0-18.361 8.237-18.361 18.361v12.936h-2.521c-7.195 0-13.05 5.854-13.05 13.051v140.602c0 33.088 22.439 61.017 52.893 69.416v12.856c0 12.421 10.104 22.525 22.525 22.525h14.867v38.467c0 34.558 28.115 62.673 62.673 62.673h71.713c34.558 0 62.673-28.115 62.673-62.673v-386.27c0-10.849 8.825-19.674 19.673-19.674h70.249c10.848 0 19.673 8.825 19.673 19.674v441.443c0 4.143 3.357 7.5 7.5 7.5s7.5-3.357 7.5-7.5v-441.443c0-19.119-15.554-34.674-34.673-34.674h-70.249c-19.119 0-34.673 15.555-34.673 34.674v386.271c0 26.287-21.386 47.673-47.673 47.673h-71.713c-26.287 0-47.673-21.386-47.673-47.673v-38.468h13v38.467c0 19.119 15.554 34.673 34.673 34.673h71.713c19.119 0 34.673-15.554 34.673-34.673v-386.27c0-26.287 21.386-47.674 47.673-47.674h70.249c26.287 0 47.673 21.387 47.673 47.674v99.534c0 4.143 3.357 7.5 7.5 7.5s7.5-3.357 7.5-7.5v-99.534c-.001-34.559-28.116-62.674-62.674-62.674zm-228.608 21.158c0-3.606 2.934-6.541 6.54-6.541s6.541 2.935 6.541 6.541v99.572h-13.081zm-118.086 117.934c0-1.854 1.508-3.361 3.361-3.361h155.704c1.854 0 3.361 1.508 3.361 3.361v12.936h-162.426zm44.847 256.385c-4.149 0-7.525-3.376-7.525-7.525v-10.386c3.471.198 84.325.197 87.784 0v10.386c0 4.149-3.376 7.525-7.525 7.525-8.219 0-64.529 0-72.734 0z" data-original="#000000" class="active-path" data-old_color="#000000" fill="#12284C"/></g></g> </svg>
