<?xml version="1.0" encoding="utf-8"?>
<!-- Generator: Adobe Illustrator 24.0.0, SVG Export Plug-In . SVG Version: 6.00 Build 0)  -->
<svg version="1.1" id="Layer_1" xmlns="http://www.w3.org/2000/svg" xmlns:xlink="http://www.w3.org/1999/xlink" x="0px" y="0px"
	 viewBox="0 0 98.04 45.95" style="enable-background:new 0 0 98.04 45.95;" xml:space="preserve">
<style type="text/css">
	.st0{fill:#FFFFFF;}
	.st1{fill:url(#SVGID_1_);}
	.st2{fill:url(#SVGID_2_);}
	.st3{fill:url(#SVGID_3_);}
	.st4{fill:url(#SVGID_4_);}
	.st5{fill:url(#SVGID_5_);}
	.st6{fill:url(#SVGID_6_);}
	.st7{fill:url(#SVGID_7_);}
	.st8{fill:url(#SVGID_8_);}
	.st9{fill:url(#SVGID_9_);}
	.st10{fill:url(#SVGID_10_);}
	.st11{fill:url(#SVGID_11_);}
	.st12{fill:url(#SVGID_12_);}
	.st13{fill:url(#SVGID_13_);}
	.st14{fill:url(#SVGID_14_);}
	.st15{fill:url(#SVGID_15_);}
	.st16{fill:url(#SVGID_16_);}
	.st17{fill:url(#SVGID_17_);}
	.st18{fill:url(#SVGID_18_);}
	.st19{fill:url(#SVGID_19_);}
	.st20{fill:url(#SVGID_20_);}
	.st21{fill:url(#SVGID_21_);}
	.st22{fill:url(#SVGID_22_);}
	.st23{fill:url(#SVGID_23_);}
	.st24{fill:url(#SVGID_24_);}
	.st25{fill:url(#SVGID_25_);}
	.st26{fill:url(#SVGID_26_);}
	.st27{fill:url(#SVGID_27_);}
	.st28{fill:url(#SVGID_28_);}
	.st29{fill:url(#SVGID_29_);}
	.st30{fill:url(#SVGID_30_);}
	.st31{fill:url(#SVGID_31_);}
	.st32{fill:url(#SVGID_32_);}
	.st33{fill:url(#SVGID_33_);}
	.st34{fill:url(#SVGID_34_);}
	.st35{fill:#F7C912;}
</style>
<g>
	<path class="st0" d="M79.06,6.72h16.91v-1.6c0-2.33-1.89-4.22-4.22-4.22l-12.69,0C80.7,2.67,80.11,5.83,79.06,6.72z"/>
	<g>
		<path class="st0" d="M1.99,6.72l51.15,0c0.19-2.51,0.9-4.51,2.81-5.82l-49.75,0c-2.33,0-4.22,1.89-4.22,4.22V6.72z"/>
		<path class="st0" d="M7.81,38.25h82.48c3.22,0,5.82-2.61,5.82-5.82v0H1.99v0C1.99,35.64,4.6,38.25,7.81,38.25z"/>
		<g>
			<g>
				<linearGradient id="SVGID_1_" gradientUnits="userSpaceOnUse" x1="80.5261" y1="20.0686" x2="96.52" y2="20.0686">
					<stop  offset="0" style="stop-color:#12284C"/>
					<stop  offset="0.5649" style="stop-color:#314061"/>
					<stop  offset="0.9297" style="stop-color:#12284C"/>
				</linearGradient>
				<path class="st1" d="M95.86,14.74c0.21-0.03,0.43-0.04,0.66-0.05v-5.3c-0.94,0.01-1.8,0.12-2.57,0.32
					c-0.78,0.2-1.48,0.46-2.12,0.79c-0.64,0.33-1.24,0.7-1.78,1.12c-0.55,0.42-1.05,0.89-1.51,1.42c-0.24-0.26-0.48-0.5-0.73-0.75
					c-0.24-0.24-0.51-0.46-0.79-0.66c-0.83-0.64-1.76-1.17-2.8-1.58c-1.04-0.41-2.26-0.63-3.67-0.66c-0.01,0-0.02,0.01-0.02,0.02
					v5.27c0.04,0,0.07,0,0.11,0l0.49-1c0.52,0.04,1.02,0.15,1.5,0.31l0.05,1.15c0.03,0.01,0.06,0.03,0.09,0.04
					c0.19,0.08,0.36,0.17,0.53,0.26l0.95-0.64c0.42,0.3,0.81,0.64,1.15,1.03l-0.54,1.02c0.14,0.18,0.26,0.37,0.38,0.57l1.15-0.08
					c0.21,0.46,0.38,0.95,0.48,1.46l-0.98,0.62c0.01,0.06,0.01,0.12,0.02,0.17c0.02,0.17,0.02,0.34,0.02,0.51l1.04,0.5
					c-0.04,0.52-0.15,1.03-0.31,1.51l-1.15,0.05c-0.09,0.21-0.19,0.41-0.31,0.61l0.65,0.96c-0.29,0.42-0.64,0.81-1.02,1.15
					l-1.02-0.54c-0.18,0.14-0.37,0.26-0.57,0.38l0.08,1.15c-0.46,0.21-0.95,0.37-1.46,0.48l-0.6-0.96c-0.22,0.03-0.46,0.05-0.7,0.06
					v5.29c0.95-0.03,1.82-0.14,2.58-0.33c0.77-0.19,1.48-0.45,2.13-0.78c1.25-0.66,2.35-1.5,3.29-2.54
					c0.23,0.26,0.46,0.51,0.71,0.75c0.24,0.24,0.5,0.46,0.79,0.66c0.83,0.63,1.76,1.15,2.81,1.57c1.05,0.42,2.27,0.64,3.68,0.67
					v-5.29c-0.02,0-0.04,0-0.06,0l-0.49,1c-0.52-0.04-1.02-0.15-1.5-0.31L94.42,25c-0.03-0.01-0.07-0.03-0.1-0.05
					c-0.18-0.08-0.36-0.17-0.53-0.27l-0.94,0.64c-0.42-0.29-0.81-0.64-1.15-1.03l0.54-1.02c-0.02-0.03-0.05-0.06-0.07-0.1
					c-0.03-0.05-0.07-0.1-0.1-0.15c-0.02-0.03-0.03-0.05-0.05-0.08c-0.05-0.08-0.1-0.16-0.15-0.23c0-0.01-0.01-0.01-0.01-0.01
					l-1.15,0.08c-0.21-0.46-0.38-0.95-0.48-1.46l0.98-0.62c-0.01-0.06-0.02-0.12-0.02-0.17c-0.02-0.17-0.02-0.34-0.02-0.51
					l-1.04-0.5c0.04-0.52,0.15-1.03,0.31-1.51l1.14-0.05c0.08-0.2,0.18-0.39,0.28-0.57c0.01-0.02,0.02-0.04,0.03-0.05l-0.64-0.94
					c0.29-0.42,0.64-0.81,1.03-1.15l1,0.53c0.19-0.14,0.38-0.27,0.59-0.39l-0.08-1.12c0.46-0.22,0.95-0.38,1.46-0.48L95.86,14.74z"
					/>
			</g>
			<g>
				<linearGradient id="SVGID_2_" gradientUnits="userSpaceOnUse" x1="32.6007" y1="20.065" x2="53.9465" y2="20.065">
					<stop  offset="0" style="stop-color:#12284C"/>
					<stop  offset="0.5649" style="stop-color:#314061"/>
					<stop  offset="0.9297" style="stop-color:#12284C"/>
				</linearGradient>
				<path class="st2" d="M53.6,22.74h-5.3c-0.06,0-0.12,0-0.19-0.01c-0.07-0.01-0.12,0-0.15,0.01c-0.01,0.01-0.01,0.04,0.02,0.06
					c0.07,0.07,0.14,0.14,0.21,0.2c0.07,0.06,0.14,0.13,0.21,0.2c0.56,0.57,1.11,1.14,1.65,1.7c0.55,0.56,1.1,1.13,1.65,1.7
					c-0.51,0.64-1.08,1.22-1.71,1.74c-0.63,0.52-1.33,0.96-2.11,1.33c-0.75,0.37-1.62,0.66-2.58,0.86
					c-0.97,0.21-2.01,0.25-3.14,0.14c-1.04-0.11-1.97-0.33-2.79-0.66c-0.82-0.33-1.57-0.73-2.25-1.22
					c-1.37-0.93-2.45-2.14-3.25-3.63c-0.2-0.37-0.38-0.76-0.56-1.17c-0.17-0.41-0.31-0.85-0.43-1.3c-0.11-0.46-0.2-0.94-0.26-1.46
					c-0.06-0.52-0.07-1.07-0.04-1.65c0.04-1.07,0.22-2.03,0.52-2.89c0.31-0.86,0.68-1.64,1.12-2.34c0.43-0.7,0.94-1.33,1.53-1.91
					c0.59-0.58,1.24-1.08,1.95-1.51c0.73-0.44,1.52-0.8,2.38-1.08c0.86-0.28,1.85-0.43,2.96-0.46c0.46-0.01,0.92,0.01,1.4,0.06
					c0.48,0.06,0.92,0.14,1.33,0.23c0.41,0.1,0.8,0.22,1.17,0.37c0.37,0.15,0.73,0.3,1.07,0.46c0.68,0.33,1.31,0.73,1.88,1.2
					c0.57,0.47,1.08,0.98,1.54,1.52c0.47,0.57,0.89,1.19,1.25,1.85c0.36,0.66,0.65,1.4,0.86,2.21c0.11,0.4,0.2,0.83,0.27,1.28
					c0.06,0.46,0.1,0.93,0.1,1.43c0,0.5-0.03,0.98-0.09,1.43C53.8,21.89,53.72,22.33,53.6,22.74z M44.74,14.9
					c-0.53-0.16-1.08-0.23-1.67-0.21c-0.54,0.03-1.04,0.12-1.48,0.27c-0.45,0.15-0.86,0.35-1.23,0.59c-0.74,0.48-1.32,1.1-1.75,1.84
					c-0.21,0.37-0.39,0.79-0.53,1.27c-0.14,0.48-0.2,1-0.17,1.57c0.03,0.57,0.12,1.07,0.27,1.51c0.15,0.43,0.34,0.84,0.59,1.21
					c0.46,0.74,1.06,1.32,1.81,1.75c0.37,0.21,0.79,0.39,1.25,0.53c0.46,0.14,0.99,0.21,1.59,0.19c0.56-0.03,1.06-0.12,1.51-0.27
					c0.45-0.15,0.86-0.34,1.23-0.59c0.73-0.46,1.3-1.04,1.71-1.75c0-0.01,0-0.02,0.01-0.03c0.01-0.01,0.01-0.02,0.01-0.03
					c-0.83,0-1.65,0-2.48,0.01c-0.83,0.01-1.86,0-2.68-0.01l-1.7-2.77l1.7-2.57h5.2c-0.34-0.6-0.77-1.11-1.29-1.55
					C46.11,15.42,45.48,15.1,44.74,14.9z"/>
			</g>
			<g>
				<linearGradient id="SVGID_3_" gradientUnits="userSpaceOnUse" x1="70.804" y1="20.0859" x2="78.0036" y2="20.0859">
					<stop  offset="0" style="stop-color:#12284C"/>
					<stop  offset="0.5649" style="stop-color:#314061"/>
					<stop  offset="0.9297" style="stop-color:#12284C"/>
				</linearGradient>
				<path class="st3" d="M70.8,9.41H78c-0.01,3.57-0.02,7.13-0.01,10.68c0.01,3.54,0,7.1-0.01,10.68h-5.34V10.83L70.8,9.41z"/>
			</g>
			<linearGradient id="SVGID_4_" gradientUnits="userSpaceOnUse" x1="55.0164" y1="16.0799" x2="70.2894" y2="16.0799">
				<stop  offset="0" style="stop-color:#12284C"/>
				<stop  offset="0.5649" style="stop-color:#314061"/>
				<stop  offset="0.9297" style="stop-color:#12284C"/>
			</linearGradient>
			<path class="st4" d="M70,7.51V6.97h0.29V2.41c0-0.55-0.45-1-1-1h-6.81c-3.56,0-6.44,2.88-6.44,6.44v2.81h-1.03v5.42l1.03,0v14.66
				h9.06l-3.5-1.52V16.22h7.69c0.55,0,1-0.45,1-1v-4.56H70v-0.55h-0.98v0.55h-0.39v-0.55h-0.98v0.55h-0.39v-0.55h-0.98v0.55H65.9
				v-0.55h-0.98v0.55h-0.39v-0.55h-0.98v0.55h-0.39v-0.55H62.2v0.55h-0.59V7.85c0-0.39,0.25-0.71,0.59-0.83v0.49h0.98V6.97h0.39
				v0.54h0.98V6.97h0.39v0.54h0.98V6.97h0.39v0.54h0.98V6.97h0.39v0.54h0.98V6.97h0.39v0.54H70z"/>
			<linearGradient id="SVGID_5_" gradientUnits="userSpaceOnUse" x1="72.2369" y1="4.3665" x2="78.1772" y2="4.3665">
				<stop  offset="0" style="stop-color:#12284C"/>
				<stop  offset="0.5649" style="stop-color:#314061"/>
				<stop  offset="0.9297" style="stop-color:#12284C"/>
			</linearGradient>
			<path class="st5" d="M78.18,4.37c0,1.64-1.33,2.97-2.97,2.97c-1.64,0-2.97-1.33-2.97-2.97c0-1.64,1.33-2.97,2.97-2.97
				C76.84,1.4,78.18,2.73,78.18,4.37z"/>
			<g>
				<linearGradient id="SVGID_6_" gradientUnits="userSpaceOnUse" x1="1.6529" y1="20.1035" x2="31.8396" y2="20.1035">
					<stop  offset="0" style="stop-color:#12284C"/>
					<stop  offset="0.5649" style="stop-color:#314061"/>
					<stop  offset="0.9297" style="stop-color:#12284C"/>
				</linearGradient>
				<path class="st6" d="M31.84,9.41L29.72,30.8l-18.94-0.05c-4.19-0.04-6.17-2.28-5.95-6.87l1.25-11.27L1.65,9.43l9.99-0.02
					l-1.28,12.83c-0.3,1.59,0.16,2.36,1.39,2.32l2.83-0.02l1.54-15.12h5.33l-1.51,15.16h4.58l1.51-15.18H31.84z"/>
			</g>
		</g>
		<g>
			<g>
				<linearGradient id="SVGID_7_" gradientUnits="userSpaceOnUse" x1="80.1144" y1="19.554" x2="96.1083" y2="19.554">
					<stop  offset="0" style="stop-color:#F7C912"/>
					<stop  offset="0.4183" style="stop-color:#F6C514"/>
					<stop  offset="0.9353" style="stop-color:#F5BA18"/>
					<stop  offset="1" style="stop-color:#F5B919"/>
				</linearGradient>
				<path class="st7" d="M95.45,14.22c0.21-0.03,0.43-0.04,0.66-0.05v-5.3C95.17,8.89,94.31,9,93.54,9.2
					c-0.78,0.2-1.48,0.46-2.12,0.79c-0.64,0.33-1.24,0.7-1.78,1.12c-0.55,0.42-1.05,0.89-1.51,1.42c-0.24-0.26-0.48-0.5-0.73-0.75
					c-0.24-0.24-0.51-0.46-0.79-0.66c-0.83-0.64-1.76-1.17-2.8-1.58c-1.04-0.41-2.26-0.63-3.67-0.66c-0.01,0-0.02,0.01-0.02,0.02
					v5.27c0.04,0,0.07,0,0.11,0l0.49-1c0.52,0.04,1.02,0.15,1.5,0.31l0.05,1.15c0.03,0.01,0.06,0.03,0.09,0.04
					c0.19,0.08,0.36,0.17,0.53,0.26l0.95-0.64c0.42,0.3,0.81,0.64,1.15,1.03l-0.54,1.02c0.14,0.18,0.26,0.37,0.38,0.57l1.15-0.08
					c0.21,0.46,0.38,0.95,0.48,1.46l-0.98,0.62c0.01,0.06,0.01,0.12,0.02,0.17c0.02,0.17,0.02,0.34,0.02,0.51l1.04,0.5
					c-0.04,0.52-0.15,1.03-0.31,1.51l-1.15,0.05c-0.09,0.21-0.19,0.41-0.31,0.61l0.65,0.96c-0.29,0.42-0.64,0.81-1.02,1.15
					l-1.02-0.54c-0.18,0.14-0.37,0.26-0.57,0.38l0.08,1.15c-0.46,0.21-0.95,0.37-1.46,0.48l-0.6-0.96c-0.22,0.03-0.46,0.05-0.7,0.06
					v5.29c0.95-0.03,1.82-0.14,2.58-0.33c0.77-0.19,1.48-0.45,2.13-0.78c1.25-0.66,2.35-1.5,3.29-2.54
					c0.23,0.26,0.46,0.51,0.71,0.75c0.24,0.24,0.5,0.46,0.79,0.66c0.83,0.63,1.76,1.15,2.81,1.57c1.05,0.42,2.27,0.64,3.68,0.67
					v-5.29c-0.02,0-0.04,0-0.06,0l-0.49,1c-0.52-0.04-1.02-0.15-1.5-0.31l-0.04-1.13c-0.03-0.01-0.07-0.03-0.1-0.05
					c-0.18-0.08-0.36-0.17-0.53-0.27l-0.94,0.64c-0.42-0.29-0.81-0.64-1.15-1.03l0.54-1.02c-0.02-0.03-0.05-0.06-0.07-0.1
					c-0.03-0.05-0.07-0.1-0.1-0.15c-0.02-0.03-0.03-0.05-0.05-0.08c-0.05-0.08-0.1-0.16-0.15-0.23c0-0.01-0.01-0.01-0.01-0.01
					l-1.15,0.08c-0.21-0.46-0.38-0.95-0.48-1.46l0.98-0.62c-0.01-0.06-0.02-0.12-0.02-0.17c-0.02-0.17-0.02-0.34-0.02-0.51
					l-1.04-0.5c0.04-0.52,0.15-1.03,0.31-1.51l1.14-0.05c0.08-0.2,0.18-0.39,0.28-0.57c0.01-0.02,0.02-0.04,0.03-0.05l-0.64-0.94
					c0.29-0.42,0.64-0.81,1.03-1.15l1,0.53c0.19-0.14,0.38-0.27,0.59-0.39l-0.08-1.12c0.46-0.22,0.95-0.38,1.46-0.48L95.45,14.22z"
					/>
			</g>
			<g>
				<linearGradient id="SVGID_8_" gradientUnits="userSpaceOnUse" x1="32.189" y1="19.5504" x2="53.5348" y2="19.5504">
					<stop  offset="0" style="stop-color:#F7C912"/>
					<stop  offset="0.4183" style="stop-color:#F6C514"/>
					<stop  offset="0.9353" style="stop-color:#F5BA18"/>
					<stop  offset="1" style="stop-color:#F5B919"/>
				</linearGradient>
				<path class="st8" d="M53.19,22.22h-5.3c-0.06,0-0.12,0-0.19-0.01c-0.07-0.01-0.12,0-0.15,0.01c-0.01,0.01-0.01,0.04,0.02,0.06
					c0.07,0.07,0.14,0.14,0.21,0.2c0.07,0.06,0.14,0.13,0.21,0.2c0.56,0.57,1.11,1.14,1.65,1.7c0.55,0.56,1.1,1.13,1.65,1.7
					c-0.51,0.64-1.08,1.22-1.71,1.74c-0.63,0.52-1.33,0.96-2.11,1.33c-0.75,0.37-1.62,0.66-2.58,0.86
					c-0.97,0.21-2.01,0.25-3.14,0.14c-1.04-0.11-1.97-0.33-2.79-0.66c-0.82-0.33-1.57-0.73-2.25-1.22
					c-1.37-0.93-2.45-2.14-3.25-3.63c-0.2-0.37-0.38-0.76-0.56-1.17c-0.17-0.41-0.31-0.85-0.43-1.3c-0.11-0.46-0.2-0.94-0.26-1.46
					c-0.06-0.52-0.07-1.07-0.04-1.65c0.04-1.07,0.22-2.03,0.52-2.89c0.31-0.86,0.68-1.64,1.12-2.34c0.43-0.7,0.94-1.33,1.53-1.91
					c0.59-0.58,1.24-1.08,1.95-1.51c0.73-0.44,1.52-0.8,2.38-1.08c0.86-0.28,1.85-0.43,2.96-0.46c0.46-0.01,0.92,0.01,1.4,0.06
					C44.54,9,44.99,9.08,45.4,9.18c0.41,0.1,0.8,0.22,1.17,0.37c0.37,0.15,0.73,0.3,1.07,0.46c0.68,0.33,1.31,0.73,1.88,1.2
					c0.57,0.47,1.08,0.98,1.54,1.52c0.47,0.57,0.89,1.19,1.25,1.85c0.36,0.66,0.65,1.4,0.86,2.21c0.11,0.4,0.2,0.83,0.27,1.28
					c0.06,0.46,0.1,0.93,0.1,1.43c0,0.5-0.03,0.98-0.09,1.43C53.39,21.38,53.31,21.81,53.19,22.22z M44.33,14.39
					c-0.53-0.16-1.08-0.23-1.67-0.21c-0.54,0.03-1.04,0.12-1.48,0.27c-0.45,0.15-0.86,0.35-1.23,0.59c-0.74,0.48-1.32,1.1-1.75,1.84
					c-0.21,0.37-0.39,0.79-0.53,1.27c-0.14,0.48-0.2,1-0.17,1.57c0.03,0.57,0.12,1.07,0.27,1.51c0.15,0.43,0.34,0.84,0.59,1.21
					c0.46,0.74,1.06,1.32,1.81,1.75c0.37,0.21,0.79,0.39,1.25,0.53c0.46,0.14,0.99,0.21,1.59,0.19c0.56-0.03,1.06-0.12,1.51-0.27
					c0.45-0.15,0.86-0.34,1.23-0.59c0.73-0.46,1.3-1.04,1.71-1.75c0-0.01,0-0.02,0.01-0.03c0.01-0.01,0.01-0.02,0.01-0.03
					c-0.83,0-1.65,0-2.48,0.01c-0.83,0.01-1.86,0-2.68-0.01l-1.7-2.77l1.7-2.57h5.2c-0.34-0.6-0.77-1.11-1.29-1.55
					C45.7,14.9,45.07,14.59,44.33,14.39z"/>
			</g>
			<g>
				<linearGradient id="SVGID_9_" gradientUnits="userSpaceOnUse" x1="70.3923" y1="19.5712" x2="77.5919" y2="19.5712">
					<stop  offset="0" style="stop-color:#F7C912"/>
					<stop  offset="0.4183" style="stop-color:#F6C514"/>
					<stop  offset="0.9353" style="stop-color:#F5BA18"/>
					<stop  offset="1" style="stop-color:#F5B919"/>
				</linearGradient>
				<path class="st9" d="M70.39,8.89h7.2c-0.01,3.57-0.02,7.13-0.01,10.68c0.01,3.54,0,7.1-0.01,10.68h-5.34V10.32L70.39,8.89z"/>
			</g>
			<linearGradient id="SVGID_10_" gradientUnits="userSpaceOnUse" x1="54.6047" y1="15.5653" x2="69.8777" y2="15.5653">
				<stop  offset="0" style="stop-color:#F7C912"/>
				<stop  offset="0.4183" style="stop-color:#F6C514"/>
				<stop  offset="0.9353" style="stop-color:#F5BA18"/>
				<stop  offset="1" style="stop-color:#F5B919"/>
			</linearGradient>
			<path class="st10" d="M69.58,7V6.46h0.29V1.9c0-0.55-0.45-1-1-1h-6.81c-3.56,0-6.44,2.88-6.44,6.44v2.81H54.6v5.42l1.03,0v14.66
				h9.06l-3.5-1.52V15.7h7.69c0.55,0,1-0.45,1-1v-4.56h-0.29V9.6h-0.98v0.55h-0.39V9.6h-0.98v0.55h-0.39V9.6h-0.98v0.55h-0.39V9.6
				h-0.98v0.55h-0.39V9.6h-0.98v0.55h-0.39V9.6h-0.98v0.55h-0.59V7.34c0-0.39,0.25-0.71,0.59-0.83V7h0.98V6.46h0.39V7h0.98V6.46
				h0.39V7h0.98V6.46h0.39V7h0.98V6.46h0.39V7h0.98V6.46h0.39V7H69.58z"/>
			<linearGradient id="SVGID_11_" gradientUnits="userSpaceOnUse" x1="71.8252" y1="3.8519" x2="77.7654" y2="3.8519">
				<stop  offset="0" style="stop-color:#F7C912"/>
				<stop  offset="0.4183" style="stop-color:#F6C514"/>
				<stop  offset="0.9353" style="stop-color:#F5BA18"/>
				<stop  offset="1" style="stop-color:#F5B919"/>
			</linearGradient>
			<path class="st11" d="M77.77,3.85c0,1.64-1.33,2.97-2.97,2.97c-1.64,0-2.97-1.33-2.97-2.97c0-1.64,1.33-2.97,2.97-2.97
				C76.43,0.88,77.77,2.21,77.77,3.85z"/>
			<g>
				<linearGradient id="SVGID_12_" gradientUnits="userSpaceOnUse" x1="1.2412" y1="19.5889" x2="31.4279" y2="19.5889">
					<stop  offset="0" style="stop-color:#F7C912"/>
					<stop  offset="0.4183" style="stop-color:#F6C514"/>
					<stop  offset="0.9353" style="stop-color:#F5BA18"/>
					<stop  offset="1" style="stop-color:#F5B919"/>
				</linearGradient>
				<path class="st12" d="M31.43,8.89L29.3,30.28l-18.94-0.05c-4.19-0.04-6.17-2.28-5.95-6.87L5.66,12.1L1.24,8.91l9.99-0.02
					L9.95,21.72c-0.3,1.59,0.16,2.36,1.39,2.32l2.83-0.02l1.54-15.12h5.33l-1.51,15.16h4.58l1.51-15.18H31.43z"/>
			</g>
		</g>
		<g>
			<linearGradient id="SVGID_13_" gradientUnits="userSpaceOnUse" x1="2.5455" y1="42.6465" x2="4.4807" y2="42.6465">
				<stop  offset="0" style="stop-color:#12284C"/>
				<stop  offset="0.5649" style="stop-color:#314061"/>
				<stop  offset="0.9297" style="stop-color:#12284C"/>
			</linearGradient>
			<path class="st13" d="M4.35,42.37v0.44H3.33v1.66H2.55v-3.65h1.94v0.44H3.33v1.11H4.35z"/>
			<linearGradient id="SVGID_14_" gradientUnits="userSpaceOnUse" x1="6.0907" y1="42.6465" x2="8.7089" y2="42.6465">
				<stop  offset="0" style="stop-color:#12284C"/>
				<stop  offset="0.5649" style="stop-color:#314061"/>
				<stop  offset="0.9297" style="stop-color:#12284C"/>
			</linearGradient>
			<path class="st14" d="M7.03,44.47c-0.63,0-0.94-0.21-0.94-0.62v-2.41c0-0.42,0.31-0.63,0.94-0.63h0.75
				c0.62,0,0.94,0.21,0.94,0.63v2.41c0,0.41-0.31,0.62-0.94,0.62H7.03z M7.22,44.03h0.4c0.21,0,0.31-0.07,0.31-0.21v-2.34
				c0-0.14-0.12-0.21-0.35-0.21H7.21c-0.23,0-0.34,0.07-0.34,0.21v2.34C6.87,43.96,6.99,44.03,7.22,44.03z"/>
			<linearGradient id="SVGID_15_" gradientUnits="userSpaceOnUse" x1="10.5222" y1="42.6465" x2="13.0266" y2="42.6465">
				<stop  offset="0" style="stop-color:#12284C"/>
				<stop  offset="0.5649" style="stop-color:#314061"/>
				<stop  offset="0.9297" style="stop-color:#12284C"/>
			</linearGradient>
			<path class="st15" d="M10.52,40.82h1.53c0.6,0,0.89,0.21,0.89,0.63v0.9c0,0.32-0.15,0.52-0.46,0.61l0.54,1.52h-0.74L11.77,43
				H11.3v1.48h-0.78V40.82z M11.3,42.58h0.51c0.23,0,0.35-0.09,0.35-0.26v-0.79c0-0.18-0.12-0.26-0.35-0.26H11.3V42.58z"/>
			<linearGradient id="SVGID_16_" gradientUnits="userSpaceOnUse" x1="17.1408" y1="42.6465" x2="20.312" y2="42.6465">
				<stop  offset="0" style="stop-color:#12284C"/>
				<stop  offset="0.5649" style="stop-color:#314061"/>
				<stop  offset="0.9297" style="stop-color:#12284C"/>
			</linearGradient>
			<path class="st16" d="M18.73,42.97l0.72-2.15h0.86v3.65h-0.78l0.08-2.39l-0.59,1.73h-0.6l-0.59-1.73l0.08,2.39h-0.78v-3.65H18
				L18.73,42.97z"/>
			<linearGradient id="SVGID_17_" gradientUnits="userSpaceOnUse" x1="22.1253" y1="42.6465" x2="24.5809" y2="42.6465">
				<stop  offset="0" style="stop-color:#12284C"/>
				<stop  offset="0.5649" style="stop-color:#314061"/>
				<stop  offset="0.9297" style="stop-color:#12284C"/>
			</linearGradient>
			<path class="st17" d="M22.91,44.47h-0.78v-3.03c0-0.42,0.31-0.63,0.94-0.63h0.59c0.62,0,0.94,0.21,0.94,0.63v3.03H23.8v-1.34
				h-0.89V44.47z M23.8,42.69v-1.22c0-0.14-0.11-0.21-0.34-0.21h-0.21c-0.23,0-0.34,0.07-0.34,0.21v1.22H23.8z"/>
			<linearGradient id="SVGID_18_" gradientUnits="userSpaceOnUse" x1="26.3941" y1="42.6465" x2="27.1747" y2="42.6465">
				<stop  offset="0" style="stop-color:#12284C"/>
				<stop  offset="0.5649" style="stop-color:#314061"/>
				<stop  offset="0.9297" style="stop-color:#12284C"/>
			</linearGradient>
			<path class="st18" d="M26.39,44.47v-3.65h0.78v3.65H26.39z"/>
			<linearGradient id="SVGID_19_" gradientUnits="userSpaceOnUse" x1="29.0285" y1="42.6465" x2="31.4272" y2="42.6465">
				<stop  offset="0" style="stop-color:#12284C"/>
				<stop  offset="0.5649" style="stop-color:#314061"/>
				<stop  offset="0.9297" style="stop-color:#12284C"/>
			</linearGradient>
			<path class="st19" d="M30.65,42.59v-1.76h0.78v3.65h-0.78v-0.73l-0.84-1.66v2.39h-0.78v-3.65h0.78L30.65,42.59z"/>
			<linearGradient id="SVGID_20_" gradientUnits="userSpaceOnUse" x1="32.9965" y1="42.6465" x2="35.2733" y2="42.6465">
				<stop  offset="0" style="stop-color:#12284C"/>
				<stop  offset="0.5649" style="stop-color:#314061"/>
				<stop  offset="0.9297" style="stop-color:#12284C"/>
			</linearGradient>
			<path class="st20" d="M34.53,41.26v3.21h-0.78v-3.21H33v-0.44h2.28v0.44H34.53z"/>
			<linearGradient id="SVGID_21_" gradientUnits="userSpaceOnUse" x1="36.8425" y1="42.6465" x2="38.7777" y2="42.6465">
				<stop  offset="0" style="stop-color:#12284C"/>
				<stop  offset="0.5649" style="stop-color:#314061"/>
				<stop  offset="0.9297" style="stop-color:#12284C"/>
			</linearGradient>
			<path class="st21" d="M36.84,44.47v-3.65h1.94v0.44h-1.15v1.11h1.02v0.44h-1.02v1.22h1.15v0.44H36.84z"/>
			<linearGradient id="SVGID_22_" gradientUnits="userSpaceOnUse" x1="40.4609" y1="42.6465" x2="42.8596" y2="42.6465">
				<stop  offset="0" style="stop-color:#12284C"/>
				<stop  offset="0.5649" style="stop-color:#314061"/>
				<stop  offset="0.9297" style="stop-color:#12284C"/>
			</linearGradient>
			<path class="st22" d="M42.08,42.59v-1.76h0.78v3.65h-0.78v-0.73l-0.84-1.66v2.39h-0.78v-3.65h0.78L42.08,42.59z"/>
			<linearGradient id="SVGID_23_" gradientUnits="userSpaceOnUse" x1="44.6728" y1="42.6465" x2="47.1284" y2="42.6465">
				<stop  offset="0" style="stop-color:#12284C"/>
				<stop  offset="0.5649" style="stop-color:#314061"/>
				<stop  offset="0.9297" style="stop-color:#12284C"/>
			</linearGradient>
			<path class="st23" d="M45.45,44.47h-0.78v-3.03c0-0.42,0.31-0.63,0.94-0.63h0.59c0.62,0,0.94,0.21,0.94,0.63v3.03h-0.78v-1.34
				h-0.89V44.47z M46.35,42.69v-1.22c0-0.14-0.11-0.21-0.34-0.21h-0.21c-0.23,0-0.34,0.07-0.34,0.21v1.22H46.35z"/>
			<linearGradient id="SVGID_24_" gradientUnits="userSpaceOnUse" x1="48.901" y1="42.6465" x2="51.2753" y2="42.6465">
				<stop  offset="0" style="stop-color:#12284C"/>
				<stop  offset="0.5649" style="stop-color:#314061"/>
				<stop  offset="0.9297" style="stop-color:#12284C"/>
			</linearGradient>
			<path class="st24" d="M51.28,43.62v0.23c0,0.41-0.31,0.62-0.94,0.62h-0.5c-0.62,0-0.94-0.21-0.94-0.62v-2.41
				c0-0.41,0.31-0.62,0.94-0.62h0.5c0.62,0,0.94,0.21,0.94,0.62v0.41h-0.78v-0.38c0-0.14-0.12-0.21-0.35-0.21h-0.15
				c-0.21,0-0.31,0.07-0.31,0.21v2.34c0,0.14,0.1,0.21,0.31,0.21h0.2c0.21,0,0.31-0.07,0.31-0.21v-0.2H51.28z"/>
			<linearGradient id="SVGID_25_" gradientUnits="userSpaceOnUse" x1="53.0072" y1="42.6465" x2="54.9426" y2="42.6465">
				<stop  offset="0" style="stop-color:#12284C"/>
				<stop  offset="0.5649" style="stop-color:#314061"/>
				<stop  offset="0.9297" style="stop-color:#12284C"/>
			</linearGradient>
			<path class="st25" d="M53.01,44.47v-3.65h1.94v0.44h-1.15v1.11h1.02v0.44h-1.02v1.22h1.15v0.44H53.01z"/>
			<linearGradient id="SVGID_26_" gradientUnits="userSpaceOnUse" x1="59.008" y1="42.6465" x2="61.4636" y2="42.6465">
				<stop  offset="0" style="stop-color:#12284C"/>
				<stop  offset="0.5649" style="stop-color:#314061"/>
				<stop  offset="0.9297" style="stop-color:#12284C"/>
			</linearGradient>
			<path class="st26" d="M59.79,44.47h-0.78v-3.03c0-0.42,0.31-0.63,0.94-0.63h0.59c0.62,0,0.94,0.21,0.94,0.63v3.03h-0.78v-1.34
				h-0.89V44.47z M60.68,42.69v-1.22c0-0.14-0.11-0.21-0.34-0.21h-0.21c-0.23,0-0.34,0.07-0.34,0.21v1.22H60.68z"/>
			<linearGradient id="SVGID_27_" gradientUnits="userSpaceOnUse" x1="63.2768" y1="42.6465" x2="65.6756" y2="42.6465">
				<stop  offset="0" style="stop-color:#12284C"/>
				<stop  offset="0.5649" style="stop-color:#314061"/>
				<stop  offset="0.9297" style="stop-color:#12284C"/>
			</linearGradient>
			<path class="st27" d="M64.89,42.59v-1.76h0.78v3.65h-0.78v-0.73l-0.84-1.66v2.39h-0.78v-3.65h0.78L64.89,42.59z"/>
			<linearGradient id="SVGID_28_" gradientUnits="userSpaceOnUse" x1="67.5294" y1="42.6465" x2="69.985" y2="42.6465">
				<stop  offset="0" style="stop-color:#12284C"/>
				<stop  offset="0.5649" style="stop-color:#314061"/>
				<stop  offset="0.9297" style="stop-color:#12284C"/>
			</linearGradient>
			<path class="st28" d="M67.53,44.47v-3.65h1.36c0.73,0,1.1,0.23,1.1,0.7v2.42c0,0.35-0.31,0.53-0.94,0.53H67.53z M68.31,44.03
				h0.59c0.21,0,0.31-0.05,0.31-0.16v-2.34c0-0.18-0.12-0.26-0.35-0.26h-0.54V44.03z"/>
			<linearGradient id="SVGID_29_" gradientUnits="userSpaceOnUse" x1="74.2212" y1="42.6465" x2="76.7257" y2="42.6465">
				<stop  offset="0" style="stop-color:#12284C"/>
				<stop  offset="0.5649" style="stop-color:#314061"/>
				<stop  offset="0.9297" style="stop-color:#12284C"/>
			</linearGradient>
			<path class="st29" d="M74.22,40.82h1.53c0.6,0,0.89,0.21,0.89,0.63v0.9c0,0.32-0.15,0.52-0.46,0.61l0.54,1.52h-0.74L75.47,43H75
				v1.48h-0.78V40.82z M75,42.58h0.51c0.23,0,0.35-0.09,0.35-0.26v-0.79c0-0.18-0.12-0.26-0.35-0.26H75V42.58z"/>
			<linearGradient id="SVGID_30_" gradientUnits="userSpaceOnUse" x1="78.4168" y1="42.6465" x2="80.3521" y2="42.6465">
				<stop  offset="0" style="stop-color:#12284C"/>
				<stop  offset="0.5649" style="stop-color:#314061"/>
				<stop  offset="0.9297" style="stop-color:#12284C"/>
			</linearGradient>
			<path class="st30" d="M78.42,44.47v-3.65h1.94v0.44H79.2v1.11h1.02v0.44H79.2v1.22h1.15v0.44H78.42z"/>
			<linearGradient id="SVGID_31_" gradientUnits="userSpaceOnUse" x1="82.0352" y1="42.6465" x2="84.4014" y2="42.6465">
				<stop  offset="0" style="stop-color:#12284C"/>
				<stop  offset="0.5649" style="stop-color:#314061"/>
				<stop  offset="0.9297" style="stop-color:#12284C"/>
			</linearGradient>
			<path class="st31" d="M82.04,40.82h1.42c0.63,0,0.94,0.21,0.94,0.63v1.08c0,0.41-0.31,0.62-0.94,0.62h-0.65v1.32h-0.78V40.82z
				 M82.82,42.71h0.5c0.21,0,0.31-0.07,0.31-0.21v-1.02c0-0.14-0.12-0.21-0.35-0.21h-0.46V42.71z"/>
			<linearGradient id="SVGID_32_" gradientUnits="userSpaceOnUse" x1="86.1008" y1="42.6465" x2="88.5564" y2="42.6465">
				<stop  offset="0" style="stop-color:#12284C"/>
				<stop  offset="0.5649" style="stop-color:#314061"/>
				<stop  offset="0.9297" style="stop-color:#12284C"/>
			</linearGradient>
			<path class="st32" d="M86.88,44.47H86.1v-3.03c0-0.42,0.31-0.63,0.94-0.63h0.59c0.62,0,0.94,0.21,0.94,0.63v3.03h-0.78v-1.34
				h-0.89V44.47z M87.78,42.69v-1.22c0-0.14-0.11-0.21-0.34-0.21h-0.21c-0.23,0-0.34,0.07-0.34,0.21v1.22H87.78z"/>
			<linearGradient id="SVGID_33_" gradientUnits="userSpaceOnUse" x1="90.3696" y1="42.6465" x2="91.1502" y2="42.6465">
				<stop  offset="0" style="stop-color:#12284C"/>
				<stop  offset="0.5649" style="stop-color:#314061"/>
				<stop  offset="0.9297" style="stop-color:#12284C"/>
			</linearGradient>
			<path class="st33" d="M90.37,44.47v-3.65h0.78v3.65H90.37z"/>
			<linearGradient id="SVGID_34_" gradientUnits="userSpaceOnUse" x1="93.0041" y1="42.6465" x2="95.5085" y2="42.6465">
				<stop  offset="0" style="stop-color:#12284C"/>
				<stop  offset="0.5649" style="stop-color:#314061"/>
				<stop  offset="0.9297" style="stop-color:#12284C"/>
			</linearGradient>
			<path class="st34" d="M93,40.82h1.53c0.6,0,0.89,0.21,0.89,0.63v0.9c0,0.32-0.15,0.52-0.46,0.61l0.54,1.52h-0.74L94.26,43h-0.47
				v1.48H93V40.82z M93.78,42.58h0.51c0.23,0,0.35-0.09,0.35-0.26v-0.79c0-0.18-0.12-0.26-0.35-0.26h-0.51V42.58z"/>
		</g>
		<g>
			<path class="st35" d="M4.16,42.21v0.44H3.14v1.66H2.35v-3.65h1.94v0.44H3.14v1.11H4.16z"/>
			<path class="st35" d="M6.84,44.31c-0.63,0-0.94-0.21-0.94-0.62v-2.41c0-0.42,0.31-0.63,0.94-0.63h0.75
				c0.62,0,0.94,0.21,0.94,0.63v2.41c0,0.41-0.31,0.62-0.94,0.62H6.84z M7.03,43.87h0.4c0.21,0,0.31-0.07,0.31-0.21v-2.34
				c0-0.14-0.12-0.21-0.35-0.21H7.02c-0.23,0-0.34,0.07-0.34,0.21v2.34C6.68,43.8,6.8,43.87,7.03,43.87z"/>
			<path class="st35" d="M10.33,40.66h1.53c0.6,0,0.89,0.21,0.89,0.63v0.9c0,0.32-0.15,0.52-0.46,0.61l0.54,1.52H12.1l-0.51-1.48
				h-0.47v1.48h-0.78V40.66z M11.11,42.42h0.51c0.23,0,0.35-0.09,0.35-0.26v-0.79c0-0.18-0.12-0.26-0.35-0.26h-0.51V42.42z"/>
			<path class="st35" d="M18.54,42.8l0.72-2.15h0.86v3.65h-0.78l0.08-2.39l-0.59,1.73h-0.6l-0.59-1.73l0.08,2.39h-0.78v-3.65h0.86
				L18.54,42.8z"/>
			<path class="st35" d="M22.71,44.31h-0.78v-3.03c0-0.42,0.31-0.63,0.94-0.63h0.59c0.62,0,0.94,0.21,0.94,0.63v3.03h-0.78v-1.34
				h-0.89V44.31z M23.61,42.53v-1.22c0-0.14-0.11-0.21-0.34-0.21h-0.21c-0.23,0-0.34,0.07-0.34,0.21v1.22H23.61z"/>
			<path class="st35" d="M26.2,44.31v-3.65h0.78v3.65H26.2z"/>
			<path class="st35" d="M30.46,42.42v-1.76h0.78v3.65h-0.78v-0.73l-0.84-1.66v2.39h-0.78v-3.65h0.78L30.46,42.42z"/>
			<path class="st35" d="M34.33,41.1v3.21h-0.78V41.1h-0.75v-0.44h2.28v0.44H34.33z"/>
			<path class="st35" d="M36.65,44.31v-3.65h1.94v0.44h-1.15v1.11h1.02v0.44h-1.02v1.22h1.15v0.44H36.65z"/>
			<path class="st35" d="M41.89,42.42v-1.76h0.78v3.65h-0.78v-0.73l-0.84-1.66v2.39h-0.78v-3.65h0.78L41.89,42.42z"/>
			<path class="st35" d="M45.26,44.31h-0.78v-3.03c0-0.42,0.31-0.63,0.94-0.63H46c0.62,0,0.94,0.21,0.94,0.63v3.03h-0.78v-1.34
				h-0.89V44.31z M46.16,42.53v-1.22c0-0.14-0.11-0.21-0.34-0.21H45.6c-0.23,0-0.34,0.07-0.34,0.21v1.22H46.16z"/>
			<path class="st35" d="M51.08,43.46v0.23c0,0.41-0.31,0.62-0.94,0.62h-0.5c-0.62,0-0.94-0.21-0.94-0.62v-2.41
				c0-0.41,0.31-0.62,0.94-0.62h0.5c0.62,0,0.94,0.21,0.94,0.62v0.41H50.3v-0.38c0-0.14-0.12-0.21-0.35-0.21H49.8
				c-0.21,0-0.31,0.07-0.31,0.21v2.34c0,0.14,0.1,0.21,0.31,0.21h0.2c0.21,0,0.31-0.07,0.31-0.21v-0.2H51.08z"/>
			<path class="st35" d="M52.82,44.31v-3.65h1.94v0.44H53.6v1.11h1.02v0.44H53.6v1.22h1.15v0.44H52.82z"/>
			<path class="st35" d="M59.6,44.31h-0.78v-3.03c0-0.42,0.31-0.63,0.94-0.63h0.59c0.62,0,0.94,0.21,0.94,0.63v3.03h-0.78v-1.34
				H59.6V44.31z M60.49,42.53v-1.22c0-0.14-0.11-0.21-0.34-0.21h-0.21c-0.23,0-0.34,0.07-0.34,0.21v1.22H60.49z"/>
			<path class="st35" d="M64.7,42.42v-1.76h0.78v3.65H64.7v-0.73l-0.84-1.66v2.39h-0.78v-3.65h0.78L64.7,42.42z"/>
			<path class="st35" d="M67.34,44.31v-3.65h1.36c0.73,0,1.1,0.23,1.1,0.7v2.42c0,0.35-0.31,0.53-0.94,0.53H67.34z M68.12,43.87
				h0.59c0.21,0,0.31-0.05,0.31-0.16v-2.34c0-0.18-0.12-0.26-0.35-0.26h-0.54V43.87z"/>
			<path class="st35" d="M74.03,40.66h1.53c0.6,0,0.89,0.21,0.89,0.63v0.9c0,0.32-0.15,0.52-0.46,0.61l0.54,1.52h-0.74l-0.51-1.48
				h-0.47v1.48h-0.78V40.66z M74.81,42.42h0.51c0.23,0,0.35-0.09,0.35-0.26v-0.79c0-0.18-0.12-0.26-0.35-0.26h-0.51V42.42z"/>
			<path class="st35" d="M78.23,44.31v-3.65h1.94v0.44h-1.15v1.11h1.02v0.44h-1.02v1.22h1.15v0.44H78.23z"/>
			<path class="st35" d="M81.84,40.66h1.42c0.63,0,0.94,0.21,0.94,0.63v1.08c0,0.41-0.31,0.62-0.94,0.62h-0.65v1.32h-0.78V40.66z
				 M82.62,42.54h0.5c0.21,0,0.31-0.07,0.31-0.21v-1.02c0-0.14-0.12-0.21-0.35-0.21h-0.46V42.54z"/>
			<path class="st35" d="M86.69,44.31h-0.78v-3.03c0-0.42,0.31-0.63,0.94-0.63h0.59c0.62,0,0.94,0.21,0.94,0.63v3.03h-0.78v-1.34
				h-0.89V44.31z M87.58,42.53v-1.22c0-0.14-0.11-0.21-0.34-0.21h-0.21c-0.23,0-0.34,0.07-0.34,0.21v1.22H87.58z"/>
			<path class="st35" d="M90.18,44.31v-3.65h0.78v3.65H90.18z"/>
			<path class="st35" d="M92.81,40.66h1.53c0.6,0,0.89,0.21,0.89,0.63v0.9c0,0.32-0.15,0.52-0.46,0.61l0.54,1.52h-0.74l-0.51-1.48
				h-0.47v1.48h-0.78V40.66z M93.59,42.42h0.51c0.23,0,0.35-0.09,0.35-0.26v-0.79c0-0.18-0.12-0.26-0.35-0.26h-0.51V42.42z"/>
		</g>
	</g>
</g>
</svg>
