<svg id="Capa_1" enable-background="new 0 0 513.299 513.299" height="512" viewBox="0 0 513.299 513.299" width="512" xmlns="http://www.w3.org/2000/svg"><g><path d="m434.623 36.242h-50.965c-1.46-10.749-10.693-19.063-21.836-19.063h-11.95c-4.093-10.063-13.973-17.179-25.488-17.179h-222.305c-11.516 0-21.395 7.116-25.488 17.18h-11.95c-12.155 0-22.043 9.889-22.043 22.043v44.038c0 11.838 9.381 21.522 21.099 22.019v27.455c0 4.142 3.358 7.5 7.5 7.5s7.5-3.358 7.5-7.5v-23.292c4.856 7.82 13.519 13.041 23.382 13.041h70.75v66.641c0 5.931-4.825 10.755-10.756 10.755s-10.755-4.825-10.755-10.755v-11.396c0-13.375-10.881-24.255-24.255-24.255s-24.256 10.881-24.256 24.255v95.464c0 6.646-5.408 12.054-12.054 12.054-6.647 0-12.055-5.408-12.055-12.054v-108.495c0-4.142-3.358-7.5-7.5-7.5s-7.5 3.358-7.5 7.5v108.496c0 14.918 12.137 27.054 27.055 27.054s27.054-12.136 27.054-27.054v-95.464c0-5.104 4.152-9.255 9.256-9.255s9.255 4.152 9.255 9.255v11.396c0 14.202 11.554 25.755 25.755 25.755s25.756-11.554 25.756-25.755v-66.641h74.992c4.142 0 7.5-3.358 7.5-7.5s-3.358-7.5-7.5-7.5h-160.742c-6.896 0-12.506-5.61-12.506-12.507v-17.445l32.579-14.399c16.663-7.364 35.462-8.582 52.933-3.428l27.984 8.255c19.028 5.614 39.739 4.872 58.319-2.087 15.14-5.671 31.396-6.451 47.008-2.255l28.495 7.657v23.7c0 6.896-5.61 12.507-12.506 12.507h-29.602c-4.142 0-7.5 3.358-7.5 7.5s3.358 7.5 7.5 7.5h13.61v56.061h-69.246c-22.441 0-40.699 18.258-40.699 40.699v28.916h-21.237c-12.054 0-21.861 9.807-21.861 21.862v19.349c0 12.055 9.807 21.862 21.861 21.862h8.637v9.519c-10.026 9.881-15.726 23.426-15.726 37.573v110.729c0 23.265 18.053 42.379 40.884 44.105.008.001.017.001.025.002 1.103.083 2.213.139 3.337.139h18.265c24.397 0 44.246-19.849 44.246-44.246v-45.085c0-4.142-3.358-7.5-7.5-7.5s-7.5 3.358-7.5 7.5v45.085c0 16.126-13.12 29.246-29.246 29.246h-13.354v-73.375c0-4.142-3.358-7.5-7.5-7.5s-7.5 3.358-7.5 7.5v71.581c-11.17-4.118-19.157-14.869-19.157-27.451v-110.729c0-10.762 4.61-21.039 12.648-28.194l.564-.502c1.599-1.423 2.514-3.462 2.514-5.603v-12.793h19.844c4.142 0 7.5-3.358 7.5-7.5s-3.358-7.5-7.5-7.5h-27.344-16.137c-3.783 0-6.861-3.078-6.861-6.862v-19.349c0-3.784 3.078-6.862 6.861-6.862h92.58c3.784 0 6.862 3.078 6.862 6.862v19.349c0 3.784-3.078 6.862-6.862 6.862h-16.137c-4.142 0-7.5 3.358-7.5 7.5v20.293c0 2.141.915 4.179 2.514 5.603l.563.501c8.038 7.156 12.648 17.433 12.648 28.195v33.681c0 4.142 3.358 7.5 7.5 7.5s7.5-3.358 7.5-7.5v-33.681c0-14.146-5.7-27.691-15.726-37.573v-9.519h8.637c12.055 0 21.862-9.807 21.862-21.862v-19.349c0-12.055-9.807-21.862-21.862-21.862h-21.343v-19.615h59.945v28.571c0 14.437 11.745 26.182 26.182 26.182s26.182-11.745 26.182-26.182v-28.571h2.809c9.629 0 18.681-3.75 25.486-10.557l71.082-71.082c6.814-6.814 10.567-15.875 10.567-25.511v-49.074c.001-19.894-16.183-36.079-36.077-36.079zm-73.867 69.063h1.064c11.143 0 20.376-8.313 21.836-19.063h37.044v29.387l-59.945 59.945v-70.269zm8.108-66.082v44.038c0 3.884-3.16 7.043-7.043 7.043h-9.931v-58.124h9.931c3.884 0 7.043 3.159 7.043 7.043zm-311.266 44.038v-44.038c0-3.884 3.16-7.043 7.043-7.043h9.931v40.566.039 17.52h-9.931c-3.883 0-7.043-3.16-7.043-7.044zm254.69-34.127c-18.653-5.013-38.074-4.081-56.163 2.694-15.551 5.824-32.886 6.445-48.813 1.747l-27.984-8.255c-20.875-6.158-43.335-4.704-63.241 4.095l-26.515 11.719v-33.628c0-6.896 5.61-12.506 12.506-12.506h222.305c6.896 0 12.506 5.61 12.506 12.506v28.238zm11.105 73.35h.991c8.621 0 16.326-3.99 21.373-10.217v66.278h-22.364zm22.363 134.633c0 6.166-5.016 11.182-11.182 11.182s-11.182-5.016-11.182-11.182v-28.571h22.364zm109.945-135.721c0 5.63-2.192 10.923-6.174 14.905l-71.083 71.083c-3.973 3.974-9.257 6.163-14.879 6.163h-122.617c-4.142 0-7.5 3.358-7.5 7.5v26.115h-20v-27.916c0-14.17 11.529-25.699 25.699-25.699h121.744c1.989 0 3.897-.79 5.303-2.197l67.31-67.31c1.407-1.406 2.197-3.314 2.197-5.303v-39.995c0-4.142-3.358-7.5-7.5-7.5h-44.337v-20h50.758c11.623 0 21.079 9.456 21.079 21.079z"/><path d="m90.751 325.279c-14.918 0-27.055 12.136-27.055 27.054v23.892c0 14.918 12.137 27.054 27.055 27.054s27.054-12.136 27.054-27.054v-23.892c.001-14.917-12.136-27.054-27.054-27.054zm12.055 50.946c0 6.646-5.408 12.054-12.054 12.054-6.647 0-12.055-5.408-12.055-12.054v-23.892c0-6.646 5.408-12.054 12.055-12.054 6.646 0 12.054 5.408 12.054 12.054z"/></g></svg>