<?xml version="1.0" encoding="utf-8"?>
<!-- Generator: Adobe Illustrator 24.0.0, SVG Export Plug-In . SVG Version: 6.00 Build 0)  -->
<svg version="1.1" id="Capa_1" xmlns="http://www.w3.org/2000/svg" xmlns:xlink="http://www.w3.org/1999/xlink" x="0px" y="0px"
	 viewBox="0 0 210 210" style="enable-background:new 0 0 210 210;" xml:space="preserve">
<style type="text/css">
	.st0{fill:#FFFFFF;}
	.st1{fill:#12284C;}
</style>
<circle class="st0" cx="105.1" cy="105" r="105"/>
<path class="st1" d="M167.5,95.5L71.9,40.8c-1.6-0.9-3.5-1.4-5.3-1.4c0,0-0.1,0-0.1,0c-0.2,0-0.5,0-0.7,0c-0.1,0-0.2,0-0.3,0
	c-0.2,0-0.4,0-0.6,0.1c-0.1,0-0.1,0-0.2,0l0,0c-1.2,0.2-2.4,0.6-3.4,1.3c-3.3,1.9-5.3,5.5-5.3,9.3v109.3c0,3.8,2,7.4,5.3,9.3
	c1.1,0.6,2.2,1,3.4,1.3l0,0c0.1,0,0.1,0,0.2,0c0.2,0,0.4,0.1,0.6,0.1c0.1,0,0.2,0,0.3,0c0.2,0,0.5,0,0.7,0c0,0,0.1,0,0.1,0
	c1.8,0,3.7-0.5,5.3-1.4l95.6-54.7c3.3-1.9,5.4-5.5,5.4-9.3c0,0,0,0,0,0c0,0,0,0,0,0c0,0,0,0,0,0c0,0,0,0,0,0
	C172.9,100.9,170.9,97.4,167.5,95.5z M129.7,84.6l-9.5,12.5L96,65.4L129.7,84.6z M162.9,106L96,144.2l41.9-54.9l25,14.3
	c0.4,0.2,0.7,0.7,0.7,1.2C163.6,105.3,163.3,105.8,162.9,106z"/>
</svg>
