<?xml version="1.0"?>
<svg xmlns="http://www.w3.org/2000/svg" xmlns:xlink="http://www.w3.org/1999/xlink" version="1.1" id="Capa_1" x="0px" y="0px" viewBox="0 0 512.001 512.001" style="enable-background:new 0 0 512.001 512.001;" xml:space="preserve" width="512px" height="512px" class=""><g><g>
	<g>
		<path d="M95.23,152.251c-0.13-0.641-0.32-1.27-0.57-1.87c-0.25-0.61-0.56-1.19-0.92-1.73c-0.36-0.55-0.78-1.06-1.24-1.52    c-0.46-0.46-0.98-0.88-1.52-1.24c-0.55-0.359-1.13-0.67-1.73-0.92c-0.6-0.25-1.23-0.439-1.87-0.57c-1.29-0.26-2.62-0.26-3.91,0    c-0.64,0.131-1.27,0.32-1.87,0.57c-0.6,0.25-1.18,0.561-1.73,0.92c-0.54,0.36-1.059,0.78-1.52,1.24    c-0.46,0.46-0.88,0.97-1.24,1.52c-0.36,0.54-0.67,1.12-0.92,1.73c-0.25,0.6-0.44,1.23-0.57,1.87c-0.13,0.64-0.2,1.3-0.2,1.95    c0,0.649,0.07,1.31,0.2,1.96c0.131,0.629,0.32,1.259,0.57,1.87c0.25,0.6,0.56,1.18,0.92,1.72c0.36,0.55,0.78,1.06,1.24,1.52    c0.461,0.46,0.98,0.88,1.52,1.25c0.55,0.36,1.13,0.67,1.73,0.92c0.6,0.25,1.23,0.44,1.87,0.57c0.65,0.12,1.3,0.19,1.96,0.19    c0.65,0,1.3-0.07,1.95-0.19c0.64-0.13,1.27-0.32,1.87-0.57s1.18-0.56,1.73-0.92c0.54-0.37,1.05-0.79,1.52-1.25    c0.46-0.46,0.87-0.97,1.24-1.52c0.36-0.54,0.67-1.12,0.92-1.72c0.25-0.61,0.44-1.24,0.57-1.87c0.13-0.65,0.2-1.311,0.2-1.96    C95.43,153.551,95.36,152.89,95.23,152.251z" data-original="#000000" class="active-path" data-old_color="#000000" fill="#12284C"/>
	</g>
</g><g>
	<g>
		<path d="M426.389,355.98c-0.129-0.64-0.328-1.27-0.569-1.87c-0.25-0.6-0.56-1.19-0.92-1.729c-0.37-0.55-0.79-1.061-1.25-1.521    c-0.46-0.46-0.97-0.88-1.52-1.239c-0.54-0.36-1.12-0.67-1.72-0.92c-0.61-0.25-1.24-0.44-1.87-0.57c-1.29-0.26-2.62-0.26-3.91,0    c-0.64,0.13-1.27,0.32-1.87,0.57c-0.61,0.25-1.19,0.56-1.73,0.92c-0.55,0.359-1.06,0.779-1.52,1.239    c-0.46,0.46-0.88,0.971-1.24,1.521c-0.36,0.54-0.67,1.13-0.92,1.729c-0.25,0.601-0.44,1.23-0.57,1.87    c-0.13,0.641-0.2,1.301-0.2,1.95c0,0.65,0.07,1.31,0.2,1.96c0.13,0.63,0.32,1.26,0.57,1.87c0.25,0.6,0.56,1.18,0.92,1.72    c0.36,0.551,0.78,1.061,1.24,1.521c0.46,0.47,0.97,0.88,1.52,1.25c0.54,0.359,1.12,0.67,1.73,0.92c0.6,0.25,1.23,0.44,1.87,0.57    c0.64,0.13,1.3,0.19,1.95,0.19c2.64,0,5.21-1.06,7.07-2.93c0.46-0.46,0.88-0.97,1.25-1.521c0.36-0.54,0.66-1.12,0.91-1.72    c0.25-0.61,0.45-1.24,0.579-1.87c0.13-0.649,0.19-1.31,0.19-1.96C426.579,357.281,426.519,356.62,426.389,355.98z" data-original="#000000" class="active-path" data-old_color="#000000" fill="#12284C"/>
	</g>
</g><g>
	<g>
		<path d="M502.001,448.731h-0.345v-43.896c0-5.523-4.477-10-10-10h-15.107V176.703c0-75.961-61.799-137.76-137.76-137.76    S201.03,100.742,201.03,176.703v158.596c0,15.34-12.479,27.819-27.819,27.819c-15.34,0-27.819-12.48-27.819-27.819V117.166h14.396    c5.523,0,10-4.478,10-10V63.27h0.345c5.523,0,10-4.478,10-10V10.163c0-5.523-4.477-10-10-10H10c-5.523,0-10,4.477-10,10V53.27    c0,5.522,4.477,10,10,10h0.345v43.897c0,5.522,4.477,10,10,10h15.107v218.132c0,75.961,61.799,137.76,137.76,137.76    s137.759-61.799,137.759-137.76V176.703c0-15.34,12.479-27.819,27.819-27.819c15.34,0,27.819,12.479,27.819,27.819v218.132    h-14.396c-5.523,0-10,4.477-10,10v43.896h-0.345c-5.523,0-10,4.478-10,10v43.107c0,5.523,4.477,10,10,10h160.133    c5.523,0,10-4.477,10-10v-43.107C512.001,453.208,507.524,448.731,502.001,448.731z M386.61,214.47h19.973v105.488    c0,5.522,4.477,10,10,10s10-4.478,10-10V214.47h29.967v180.364h-69.94V214.47z M173.211,383.118    c26.367,0,47.819-21.451,47.819-47.819V176.703c0-64.933,52.827-117.76,117.759-117.76c64.933,0,117.76,52.827,117.76,117.76    v17.768h-29.967v-17.769c0-48.408-39.384-87.792-87.793-87.792s-87.792,39.384-87.792,87.792V335.3    c0,42.891-34.895,77.785-77.786,77.785c-42.892,0-77.786-34.895-77.786-77.785v-24.328h29.967v24.327    C125.392,361.667,146.844,383.118,173.211,383.118z M85.425,181.709c-5.523,0-10,4.478-10,10v99.262H55.452V117.166h69.94v173.805    H95.425v-99.262C95.425,186.187,90.948,181.709,85.425,181.709z M20.345,43.27H20V20.163h140.133V43.27h-0.345H20.345z     M30.345,97.167V63.27h119.443v33.897H30.345z M338.79,128.883c-26.367,0-47.819,21.451-47.819,47.819v158.596    c0,64.933-52.827,117.76-117.759,117.76c-64.933,0-117.76-52.827-117.76-117.76v-24.327h19.974v24.328    c0,53.919,43.867,97.785,97.786,97.785s97.786-43.866,97.786-97.785V176.702c0-37.381,30.412-67.792,67.792-67.792    c37.381,0,67.793,30.411,67.793,67.792v17.769h-19.974v-17.768C386.609,150.334,365.157,128.883,338.79,128.883z M362.213,414.835    h119.443v33.896H362.213V414.835z M492.001,491.838H351.868v-23.107h0.345h139.443h0.345V491.838z" data-original="#000000" class="active-path" data-old_color="#000000" fill="#12284C"/>
	</g>
</g></g> </svg>
