<?xml version="1.0"?>
<svg xmlns="http://www.w3.org/2000/svg" xmlns:xlink="http://www.w3.org/1999/xlink" version="1.1" id="Capa_1" x="0px" y="0px" width="512px" height="512px" viewBox="0 0 221.831 221.831" style="enable-background:new 0 0 221.831 221.831;" xml:space="preserve" class=""><g><g>
	<path d="M116.069,59.371c-0.254,0.569-0.265,1.215-0.038,1.795c0.23,0.574,0.665,1.031,1.235,1.28   c8.278,3.628,15.396,9.04,21.149,16.092c4.562,5.575,7.964,11.848,10.127,18.648c0.31,0.979,1.208,1.632,2.231,1.632   c0.241,0,0.482-0.037,0.719-0.109c0.272-0.092,0.54-0.234,0.771-0.416c0.745-0.619,1.033-1.609,0.745-2.533   c-2.342-7.359-6.027-14.147-10.956-20.183c-6.225-7.627-13.938-13.489-22.902-17.418C117.996,57.646,116.562,58.222,116.069,59.371   z" data-original="#000000" class="active-path" data-old_color="#000000" fill="#12284C"/>
	<path d="M120.616,32.176c15.974,5.062,30.047,14.638,40.688,27.678c9.879,12.1,16.293,26.62,18.54,41.995   c0.168,1.144,1.165,2.002,2.326,2.002c0.109,0,0.221-0.005,0.34-0.026c0.432-0.065,0.82-0.242,1.146-0.509   c0.64-0.532,0.95-1.333,0.823-2.146c-2.366-16.206-9.128-31.515-19.555-44.276c-11.222-13.746-26.058-23.835-42.896-29.176   c-1.218-0.378-2.562,0.315-2.939,1.519c-0.189,0.591-0.138,1.226,0.151,1.785C119.533,31.585,120.021,31.996,120.616,32.176z" data-original="#000000" class="active-path" data-old_color="#000000" fill="#12284C"/>
	<path d="M209.067,104.708c0.08,0,0.163-0.005,0.247-0.016c0.457-0.05,0.888-0.231,1.229-0.518c0.62-0.493,0.939-1.257,0.861-2.057   c-2.379-22.783-11.328-44.234-25.875-62.053C169.072,19.9,147.009,6.068,121.738,0.058c-1.233-0.283-2.514,0.501-2.808,1.738   c-0.147,0.608-0.052,1.235,0.283,1.769c0.325,0.538,0.841,0.908,1.449,1.053c24.263,5.763,45.438,19.045,61.25,38.407   c13.964,17.1,22.552,37.704,24.84,59.575C206.873,103.81,207.867,104.708,209.067,104.708z" data-original="#000000" class="active-path" data-old_color="#000000" fill="#12284C"/>
	<path d="M10.512,220.895c-0.021-0.309-0.097-0.604-0.097-0.929v1.864C10.42,221.508,10.496,221.209,10.512,220.895z" data-original="#000000" class="active-path" data-old_color="#000000" fill="#12284C"/>
	<path d="M38.25,72.208c0.048-1.477-1.107-2.727-2.59-2.779c-1.431-0.21-2.732,1.108-2.785,2.58   c-0.055,1.56-1.076,38.46,25.699,63.867c0.522,0.493,1.183,0.74,1.85,0.74c0.709,0,1.423-0.283,1.945-0.84   c1.021-1.07,0.984-2.776-0.103-3.794C37.292,108.285,38.231,72.562,38.25,72.208z" data-original="#000000" class="active-path" data-old_color="#000000" fill="#12284C"/>
	<path d="M182.553,185.23c4.212-1.673,6.846-4.756,7.229-8.436c0.382-3.794-1.675-7.469-5.643-10.073   c-12.688-8.326-37.162-25.229-59.906-45.648c2.971-4.059,4.745-9.051,4.745-14.457c0-13.536-10.972-24.507-24.505-24.507   c-5.083,0-9.806,1.554-13.725,4.206C71.185,63.208,54.269,38.935,45.843,26.36c-2.428-3.633-5.916-5.714-9.551-5.714   c-4.047,0-7.556,2.462-9.622,6.748c-7.494,15.533-11.294,32.16-11.294,49.431c0,38.506,19.325,72.726,49.084,94.091   c-0.467,0.981-0.801,2.11-0.801,3.565v25.753c0,0.745-0.604,1.343-1.344,1.343H43.528c-4.472,0-7.971,4.205-7.971,9.575   s3.499,9.58,7.971,9.58h77.218c4.474,0,7.98-4.21,7.98-9.58s-3.507-9.575-7.98-9.575h-18.787c-0.744,0-1.344-0.598-1.344-1.343   v-10.746c0-0.268-0.056-0.535-0.077-0.797c11.378,3.433,23.474,5.274,36.009,5.274C152.475,193.96,167.95,191.021,182.553,185.23z    M101.951,209.635h18.333c0.158,0.252,0.368,0.767,0.368,1.512c0,0.756-0.21,1.265-0.368,1.517H43.979   c-0.152-0.252-0.365-0.767-0.365-1.517c0-0.798,0.213-1.28,0.36-1.512h18.333c5.189,0,9.407-4.221,9.407-9.406v-22.541   c4.242,2.96,10.446,6.487,18.494,8.934c1.203,0.363,2.336,1.753,2.336,2.861v10.746C92.544,205.415,96.765,209.635,101.951,209.635   z M24.782,76.82c0-15.835,3.486-31.097,10.36-45.353c0.533-1.096,1.042-1.404,1.155-1.425c0.189,0.005,0.892,0.296,1.732,1.548   c8.725,13.008,26.397,38.387,46.738,62.222l32.037,33.254c23.533,21.286,49.051,38.898,62.17,47.508   c0.95,0.614,1.302,1.171,1.47,1.082c-0.127,0.141-0.529,0.493-1.37,0.818c-13.496,5.354-27.806,8.068-42.53,8.068   C74.919,184.554,24.782,136.223,24.782,76.82z" data-original="#000000" class="active-path" data-old_color="#000000" fill="#12284C"/>
</g></g> </svg>
