<?xml version="1.0" encoding="utf-8"?>
<!-- Generator: Adobe Illustrator 24.0.0, SVG Export Plug-In . SVG Version: 6.00 Build 0)  -->
<svg version="1.1" id="Layer_1" xmlns="http://www.w3.org/2000/svg" xmlns:xlink="http://www.w3.org/1999/xlink" x="0px" y="0px"
	 viewBox="0 0 142 52.4" style="enable-background:new 0 0 142 52.4;" xml:space="preserve">
<style type="text/css">
	.st0{fill:#FFFFFF;}
	.st1{fill:url(#SVGID_1_);}
	.st2{fill:url(#SVGID_2_);}
	.st3{fill:url(#SVGID_3_);}
	.st4{fill:url(#SVGID_4_);}
	.st5{fill:url(#SVGID_5_);}
	.st6{fill:url(#SVGID_6_);}
	.st7{fill:url(#SVGID_7_);}
	.st8{fill:url(#SVGID_8_);}
	.st9{fill:url(#SVGID_9_);}
	.st10{fill:url(#SVGID_10_);}
	.st11{fill:url(#SVGID_11_);}
	.st12{fill:url(#SVGID_12_);}
	.st13{fill:url(#SVGID_13_);}
	.st14{fill:url(#SVGID_14_);}
	.st15{fill:url(#SVGID_15_);}
	.st16{fill:url(#SVGID_16_);}
	.st17{fill:url(#SVGID_17_);}
	.st18{fill:url(#SVGID_18_);}
	.st19{fill:url(#SVGID_19_);}
	.st20{fill:url(#SVGID_20_);}
	.st21{fill:url(#SVGID_21_);}
	.st22{fill:url(#SVGID_22_);}
	.st23{fill:url(#SVGID_23_);}
	.st24{fill:url(#SVGID_24_);}
	.st25{fill:url(#SVGID_25_);}
	.st26{fill:url(#SVGID_26_);}
	.st27{fill:url(#SVGID_27_);}
	.st28{fill:url(#SVGID_28_);}
	.st29{fill:url(#SVGID_29_);}
	.st30{fill:url(#SVGID_30_);}
	.st31{fill:url(#SVGID_31_);}
	.st32{fill:url(#SVGID_32_);}
	.st33{fill:url(#SVGID_33_);}
	.st34{fill:url(#SVGID_34_);}
	.st35{fill:url(#SVGID_35_);}
	.st36{fill:url(#SVGID_36_);}
	.st37{fill:url(#SVGID_37_);}
	.st38{fill:#F7C912;}
	.st39{fill:#213355;}
</style>
<path class="st0" d="M125.1-97.6H0.3v-62h124.8c7.8,0,14.2,6.4,14.2,14.2v33.5C139.3-104,132.9-97.6,125.1-97.6z"/>
<g>
	<linearGradient id="SVGID_1_" gradientUnits="userSpaceOnUse" x1="23.8163" y1="-147.5679" x2="79.6549" y2="-147.5679">
		<stop  offset="5.405406e-02" style="stop-color:#12284C"/>
		<stop  offset="0.4351" style="stop-color:#213355"/>
		<stop  offset="1" style="stop-color:#12284C"/>
	</linearGradient>
	<path class="st1" d="M23.8-144.6h52.9c0.2-2.6,0.9-4.7,2.9-6H28.2c-2.4,0-4.4,2-4.4,4.4V-144.6z"/>
	<linearGradient id="SVGID_2_" gradientUnits="userSpaceOnUse" x1="103.5629" y1="-147.5679" x2="121.0545" y2="-147.5679">
		<stop  offset="5.405406e-02" style="stop-color:#12284C"/>
		<stop  offset="0.4351" style="stop-color:#213355"/>
		<stop  offset="1" style="stop-color:#12284C"/>
	</linearGradient>
	<path class="st2" d="M103.6-144.6h17.5v-1.7c0-2.4-2-4.4-4.4-4.4h-13.1C105.3-148.8,104.6-145.5,103.6-144.6z"/>
	<linearGradient id="SVGID_3_" gradientUnits="userSpaceOnUse" x1="23.8163" y1="-114.9524" x2="121.1979" y2="-114.9524">
		<stop  offset="5.405406e-02" style="stop-color:#12284C"/>
		<stop  offset="0.4351" style="stop-color:#213355"/>
		<stop  offset="1" style="stop-color:#12284C"/>
	</linearGradient>
	<path class="st3" d="M29.8-111.9h85.5c3.3,0,5.9-2.7,5.9-5.9v-0.1H23.8v0.1C23.8-114.6,26.5-111.9,29.8-111.9z"/>
	<g>
		<g>
			<linearGradient id="SVGID_4_" gradientUnits="userSpaceOnUse" x1="105.0757" y1="-130.7472" x2="121.6238" y2="-130.7472">
				<stop  offset="0" style="stop-color:#12284C"/>
				<stop  offset="0.5649" style="stop-color:#314061"/>
				<stop  offset="0.9297" style="stop-color:#12284C"/>
			</linearGradient>
			<path class="st4" d="M120.9-136.3c0.2,0,0.4,0,0.7-0.1v-5.5c-1,0-1.9,0.1-2.7,0.3c-0.8,0.2-1.5,0.5-2.2,0.8
				c-0.7,0.3-1.3,0.7-1.8,1.2c-0.6,0.4-1.1,0.9-1.6,1.5c-0.3-0.3-0.5-0.5-0.8-0.8c-0.3-0.3-0.5-0.5-0.8-0.7
				c-0.9-0.7-1.8-1.2-2.9-1.6c-1.1-0.4-2.3-0.7-3.8-0.7c0,0,0,0,0,0v5.5c0,0,0.1,0,0.1,0l0.5-1c0.5,0,1.1,0.2,1.6,0.3l0,1.2
				c0,0,0.1,0,0.1,0c0.2,0.1,0.4,0.2,0.6,0.3l1-0.7c0.4,0.3,0.8,0.7,1.2,1.1l-0.6,1.1c0.1,0.2,0.3,0.4,0.4,0.6l1.2-0.1
				c0.2,0.5,0.4,1,0.5,1.5l-1,0.6c0,0.1,0,0.1,0,0.2c0,0.2,0,0.4,0,0.5l1.1,0.5c0,0.5-0.2,1.1-0.3,1.6l-1.2,0
				c-0.1,0.2-0.2,0.4-0.3,0.6l0.7,1c-0.3,0.4-0.7,0.8-1.1,1.2l-1.1-0.6c-0.2,0.1-0.4,0.3-0.6,0.4l0.1,1.2c-0.5,0.2-1,0.4-1.5,0.5
				l-0.6-1c-0.2,0-0.5,0.1-0.7,0.1v5.5c1,0,1.9-0.1,2.7-0.3c0.8-0.2,1.5-0.5,2.2-0.8c1.3-0.7,2.4-1.6,3.4-2.6
				c0.2,0.3,0.5,0.5,0.7,0.8c0.3,0.3,0.5,0.5,0.8,0.7c0.9,0.6,1.8,1.2,2.9,1.6c1.1,0.4,2.4,0.7,3.8,0.7v-5.5c0,0,0,0-0.1,0l-0.5,1
				c-0.5,0-1.1-0.2-1.6-0.3l0-1.2c0,0-0.1,0-0.1,0c-0.2-0.1-0.4-0.2-0.5-0.3l-1,0.7c-0.4-0.3-0.8-0.7-1.2-1.1l0.6-1.1
				c0,0,0-0.1-0.1-0.1c0-0.1-0.1-0.1-0.1-0.2c0,0,0-0.1-0.1-0.1c-0.1-0.1-0.1-0.2-0.2-0.2c0,0,0,0,0,0l-1.2,0.1
				c-0.2-0.5-0.4-1-0.5-1.5l1-0.6c0-0.1,0-0.1,0-0.2c0-0.2,0-0.4,0-0.5l-1.1-0.5c0-0.5,0.2-1.1,0.3-1.6l1.2,0
				c0.1-0.2,0.2-0.4,0.3-0.6c0,0,0,0,0-0.1l-0.7-1c0.3-0.4,0.7-0.8,1.1-1.2l1,0.5c0.2-0.1,0.4-0.3,0.6-0.4l-0.1-1.2
				c0.5-0.2,1-0.4,1.5-0.5L120.9-136.3z"/>
		</g>
		<g>
			<linearGradient id="SVGID_5_" gradientUnits="userSpaceOnUse" x1="55.4893" y1="-130.7509" x2="77.5749" y2="-130.7509">
				<stop  offset="0" style="stop-color:#12284C"/>
				<stop  offset="0.5649" style="stop-color:#314061"/>
				<stop  offset="0.9297" style="stop-color:#12284C"/>
			</linearGradient>
			<path class="st5" d="M77.2-128h-5.5c-0.1,0-0.1,0-0.2,0c-0.1,0-0.1,0-0.2,0c0,0,0,0,0,0.1c0.1,0.1,0.1,0.1,0.2,0.2
				c0.1,0.1,0.1,0.1,0.2,0.2c0.6,0.6,1.1,1.2,1.7,1.8c0.6,0.6,1.1,1.2,1.7,1.8c-0.5,0.7-1.1,1.3-1.8,1.8c-0.6,0.5-1.4,1-2.2,1.4
				c-0.8,0.4-1.7,0.7-2.7,0.9c-1,0.2-2.1,0.3-3.2,0.1c-1.1-0.1-2-0.3-2.9-0.7c-0.8-0.3-1.6-0.8-2.3-1.3c-1.4-1-2.5-2.2-3.4-3.8
				c-0.2-0.4-0.4-0.8-0.6-1.2c-0.2-0.4-0.3-0.9-0.4-1.3c-0.1-0.5-0.2-1-0.3-1.5c-0.1-0.5-0.1-1.1,0-1.7c0-1.1,0.2-2.1,0.5-3
				c0.3-0.9,0.7-1.7,1.2-2.4c0.4-0.7,1-1.4,1.6-2c0.6-0.6,1.3-1.1,2-1.6c0.8-0.5,1.6-0.8,2.5-1.1c0.9-0.3,1.9-0.4,3.1-0.5
				c0.5,0,1,0,1.4,0.1c0.5,0.1,1,0.1,1.4,0.2c0.4,0.1,0.8,0.2,1.2,0.4c0.4,0.2,0.8,0.3,1.1,0.5c0.7,0.3,1.4,0.8,1.9,1.2
				c0.6,0.5,1.1,1,1.6,1.6c0.5,0.6,0.9,1.2,1.3,1.9c0.4,0.7,0.7,1.4,0.9,2.3c0.1,0.4,0.2,0.9,0.3,1.3c0.1,0.5,0.1,1,0.1,1.5
				c0,0.5,0,1-0.1,1.5C77.4-128.9,77.3-128.4,77.2-128z M68.1-136.1c-0.5-0.2-1.1-0.2-1.7-0.2c-0.6,0-1.1,0.1-1.5,0.3
				c-0.5,0.2-0.9,0.4-1.3,0.6c-0.8,0.5-1.4,1.1-1.8,1.9c-0.2,0.4-0.4,0.8-0.6,1.3c-0.1,0.5-0.2,1-0.2,1.6c0,0.6,0.1,1.1,0.3,1.6
				c0.2,0.4,0.4,0.9,0.6,1.2c0.5,0.8,1.1,1.4,1.9,1.8c0.4,0.2,0.8,0.4,1.3,0.6c0.5,0.1,1,0.2,1.6,0.2c0.6,0,1.1-0.1,1.6-0.3
				c0.5-0.2,0.9-0.4,1.3-0.6c0.8-0.5,1.3-1.1,1.8-1.8c0,0,0,0,0,0c0,0,0,0,0,0c-0.9,0-1.7,0-2.6,0c-0.9,0-1.9,0-2.8,0l-1.8-2.9
				l1.8-2.7h5.4c-0.4-0.6-0.8-1.2-1.3-1.6C69.5-135.6,68.8-135.9,68.1-136.1z"/>
		</g>
		<g>
			<linearGradient id="SVGID_6_" gradientUnits="userSpaceOnUse" x1="95.0166" y1="-130.7293" x2="102.4657" y2="-130.7293">
				<stop  offset="0" style="stop-color:#12284C"/>
				<stop  offset="0.5649" style="stop-color:#314061"/>
				<stop  offset="0.9297" style="stop-color:#12284C"/>
			</linearGradient>
			<path class="st6" d="M95-141.8h7.4c0,3.7,0,7.4,0,11c0,3.7,0,7.3,0,11h-5.5v-20.6L95-141.8z"/>
		</g>
		<linearGradient id="SVGID_7_" gradientUnits="userSpaceOnUse" x1="78.6819" y1="-134.8741" x2="94.4841" y2="-134.8741">
			<stop  offset="0" style="stop-color:#12284C"/>
			<stop  offset="0.5649" style="stop-color:#314061"/>
			<stop  offset="0.9297" style="stop-color:#12284C"/>
		</linearGradient>
		<path class="st7" d="M94.2-143.7v-0.6h0.3v-4.7c0-0.6-0.5-1-1-1h-7c-3.7,0-6.7,3-6.7,6.7v2.9h-1.1v5.6l1.1,0v15.2h9.4l-3.6-1.6
			v-13.5h8c0.6,0,1-0.5,1-1v-4.7h-0.3v-0.6h-1v0.6h-0.4v-0.6h-1v0.6h-0.4v-0.6h-1v0.6h-0.4v-0.6h-1v0.6h-0.4v-0.6h-1v0.6h-0.4v-0.6
			h-1v0.6h-0.6v-2.9c0-0.4,0.3-0.7,0.6-0.9v0.5h1v-0.6h0.4v0.6h1v-0.6h0.4v0.6h1v-0.6h0.4v0.6h1v-0.6h0.4v0.6h1v-0.6h0.4v0.6H94.2z"
			/>
		<linearGradient id="SVGID_8_" gradientUnits="userSpaceOnUse" x1="96.4991" y1="-146.9934" x2="102.6453" y2="-146.9934">
			<stop  offset="0" style="stop-color:#12284C"/>
			<stop  offset="0.5649" style="stop-color:#314061"/>
			<stop  offset="0.9297" style="stop-color:#12284C"/>
		</linearGradient>
		<path class="st8" d="M102.6-147c0,1.7-1.4,3.1-3.1,3.1c-1.7,0-3.1-1.4-3.1-3.1c0-1.7,1.4-3.1,3.1-3.1
			C101.3-150.1,102.6-148.7,102.6-147z"/>
		<g>
			<linearGradient id="SVGID_9_" gradientUnits="userSpaceOnUse" x1="23.469" y1="-130.7111" x2="54.7018" y2="-130.7111">
				<stop  offset="0" style="stop-color:#12284C"/>
				<stop  offset="0.5649" style="stop-color:#314061"/>
				<stop  offset="0.9297" style="stop-color:#12284C"/>
			</linearGradient>
			<path class="st9" d="M54.7-141.8l-2.2,22.1l-19.6,0c-4.3,0-6.4-2.4-6.2-7.1l1.3-11.7l-4.6-3.3l10.3,0l-1.3,13.3
				c-0.3,1.6,0.2,2.4,1.4,2.4l2.9,0l1.6-15.6H44l-1.6,15.7h4.7l1.6-15.7H54.7z"/>
		</g>
	</g>
	<g>
		<g>
			<linearGradient id="SVGID_10_" gradientUnits="userSpaceOnUse" x1="104.6497" y1="-131.2796" x2="121.1979" y2="-131.2796">
				<stop  offset="0" style="stop-color:#F7C912"/>
				<stop  offset="0.4183" style="stop-color:#F6C514"/>
				<stop  offset="0.9353" style="stop-color:#F5BA18"/>
				<stop  offset="1" style="stop-color:#F5B919"/>
			</linearGradient>
			<path class="st10" d="M120.5-136.8c0.2,0,0.4,0,0.7-0.1v-5.5c-1,0-1.9,0.1-2.7,0.3c-0.8,0.2-1.5,0.5-2.2,0.8
				c-0.7,0.3-1.3,0.7-1.8,1.2c-0.6,0.4-1.1,0.9-1.6,1.5c-0.3-0.3-0.5-0.5-0.8-0.8c-0.3-0.3-0.5-0.5-0.8-0.7
				c-0.9-0.7-1.8-1.2-2.9-1.6c-1.1-0.4-2.3-0.7-3.8-0.7c0,0,0,0,0,0v5.5c0,0,0.1,0,0.1,0l0.5-1c0.5,0,1.1,0.2,1.6,0.3l0,1.2
				c0,0,0.1,0,0.1,0c0.2,0.1,0.4,0.2,0.6,0.3l1-0.7c0.4,0.3,0.8,0.7,1.2,1.1l-0.6,1.1c0.1,0.2,0.3,0.4,0.4,0.6l1.2-0.1
				c0.2,0.5,0.4,1,0.5,1.5l-1,0.6c0,0.1,0,0.1,0,0.2c0,0.2,0,0.4,0,0.5l1.1,0.5c0,0.5-0.2,1.1-0.3,1.6l-1.2,0
				c-0.1,0.2-0.2,0.4-0.3,0.6l0.7,1c-0.3,0.4-0.7,0.8-1.1,1.2l-1.1-0.6c-0.2,0.1-0.4,0.3-0.6,0.4l0.1,1.2c-0.5,0.2-1,0.4-1.5,0.5
				l-0.6-1c-0.2,0-0.5,0.1-0.7,0.1v5.5c1,0,1.9-0.1,2.7-0.3c0.8-0.2,1.5-0.5,2.2-0.8c1.3-0.7,2.4-1.6,3.4-2.6
				c0.2,0.3,0.5,0.5,0.7,0.8c0.3,0.3,0.5,0.5,0.8,0.7c0.9,0.6,1.8,1.2,2.9,1.6c1.1,0.4,2.4,0.7,3.8,0.7v-5.5c0,0,0,0-0.1,0l-0.5,1
				c-0.5,0-1.1-0.2-1.6-0.3l0-1.2c0,0-0.1,0-0.1,0c-0.2-0.1-0.4-0.2-0.5-0.3l-1,0.7c-0.4-0.3-0.8-0.7-1.2-1.1l0.6-1.1
				c0,0,0-0.1-0.1-0.1c0-0.1-0.1-0.1-0.1-0.2c0,0,0-0.1-0.1-0.1c-0.1-0.1-0.1-0.2-0.2-0.2c0,0,0,0,0,0l-1.2,0.1
				c-0.2-0.5-0.4-1-0.5-1.5l1-0.6c0-0.1,0-0.1,0-0.2c0-0.2,0-0.4,0-0.5l-1.1-0.5c0-0.5,0.2-1.1,0.3-1.6l1.2,0
				c0.1-0.2,0.2-0.4,0.3-0.6c0,0,0,0,0-0.1l-0.7-1c0.3-0.4,0.7-0.8,1.1-1.2l1,0.5c0.2-0.1,0.4-0.3,0.6-0.4l-0.1-1.2
				c0.5-0.2,1-0.4,1.5-0.5L120.5-136.8z"/>
		</g>
		<g>
			<linearGradient id="SVGID_11_" gradientUnits="userSpaceOnUse" x1="55.0634" y1="-131.2834" x2="77.1489" y2="-131.2834">
				<stop  offset="0" style="stop-color:#F7C912"/>
				<stop  offset="0.4183" style="stop-color:#F6C514"/>
				<stop  offset="0.9353" style="stop-color:#F5BA18"/>
				<stop  offset="1" style="stop-color:#F5B919"/>
			</linearGradient>
			<path class="st11" d="M76.8-128.5h-5.5c-0.1,0-0.1,0-0.2,0c-0.1,0-0.1,0-0.2,0c0,0,0,0,0,0.1c0.1,0.1,0.1,0.1,0.2,0.2
				c0.1,0.1,0.1,0.1,0.2,0.2c0.6,0.6,1.1,1.2,1.7,1.8c0.6,0.6,1.1,1.2,1.7,1.8c-0.5,0.7-1.1,1.3-1.8,1.8c-0.6,0.5-1.4,1-2.2,1.4
				c-0.8,0.4-1.7,0.7-2.7,0.9c-1,0.2-2.1,0.3-3.2,0.1c-1.1-0.1-2-0.3-2.9-0.7c-0.8-0.3-1.6-0.8-2.3-1.3c-1.4-1-2.5-2.2-3.4-3.8
				c-0.2-0.4-0.4-0.8-0.6-1.2c-0.2-0.4-0.3-0.9-0.4-1.3c-0.1-0.5-0.2-1-0.3-1.5c-0.1-0.5-0.1-1.1,0-1.7c0-1.1,0.2-2.1,0.5-3
				c0.3-0.9,0.7-1.7,1.2-2.4c0.4-0.7,1-1.4,1.6-2c0.6-0.6,1.3-1.1,2-1.6c0.8-0.5,1.6-0.8,2.5-1.1c0.9-0.3,1.9-0.4,3.1-0.5
				c0.5,0,1,0,1.4,0.1c0.5,0.1,1,0.1,1.4,0.2c0.4,0.1,0.8,0.2,1.2,0.4c0.4,0.2,0.8,0.3,1.1,0.5c0.7,0.3,1.4,0.8,1.9,1.2
				c0.6,0.5,1.1,1,1.6,1.6c0.5,0.6,0.9,1.2,1.3,1.9c0.4,0.7,0.7,1.4,0.9,2.3c0.1,0.4,0.2,0.9,0.3,1.3c0.1,0.5,0.1,1,0.1,1.5
				c0,0.5,0,1-0.1,1.5C77-129.4,76.9-128.9,76.8-128.5z M67.6-136.6c-0.5-0.2-1.1-0.2-1.7-0.2c-0.6,0-1.1,0.1-1.5,0.3
				c-0.5,0.2-0.9,0.4-1.3,0.6c-0.8,0.5-1.4,1.1-1.8,1.9c-0.2,0.4-0.4,0.8-0.6,1.3c-0.1,0.5-0.2,1-0.2,1.6c0,0.6,0.1,1.1,0.3,1.6
				c0.2,0.4,0.4,0.9,0.6,1.2c0.5,0.8,1.1,1.4,1.9,1.8c0.4,0.2,0.8,0.4,1.3,0.6c0.5,0.1,1,0.2,1.6,0.2c0.6,0,1.1-0.1,1.6-0.3
				c0.5-0.2,0.9-0.4,1.3-0.6c0.8-0.5,1.3-1.1,1.8-1.8c0,0,0,0,0,0c0,0,0,0,0,0c-0.9,0-1.7,0-2.6,0c-0.9,0-1.9,0-2.8,0l-1.8-2.9
				l1.8-2.7h5.4c-0.4-0.6-0.8-1.2-1.3-1.6C69-136.1,68.4-136.4,67.6-136.6z"/>
		</g>
		<g>
			<linearGradient id="SVGID_12_" gradientUnits="userSpaceOnUse" x1="94.5906" y1="-131.2618" x2="102.0397" y2="-131.2618">
				<stop  offset="0" style="stop-color:#F7C912"/>
				<stop  offset="0.4183" style="stop-color:#F6C514"/>
				<stop  offset="0.9353" style="stop-color:#F5BA18"/>
				<stop  offset="1" style="stop-color:#F5B919"/>
			</linearGradient>
			<path class="st12" d="M94.6-142.3h7.4c0,3.7,0,7.4,0,11c0,3.7,0,7.3,0,11h-5.5v-20.6L94.6-142.3z"/>
		</g>
		<linearGradient id="SVGID_13_" gradientUnits="userSpaceOnUse" x1="78.2559" y1="-135.4066" x2="94.0582" y2="-135.4066">
			<stop  offset="0" style="stop-color:#F7C912"/>
			<stop  offset="0.4183" style="stop-color:#F6C514"/>
			<stop  offset="0.9353" style="stop-color:#F5BA18"/>
			<stop  offset="1" style="stop-color:#F5B919"/>
		</linearGradient>
		<path class="st13" d="M93.8-144.3v-0.6h0.3v-4.7c0-0.6-0.5-1-1-1h-7c-3.7,0-6.7,3-6.7,6.7v2.9h-1.1v5.6l1.1,0v15.2h9.4l-3.6-1.6
			v-13.5h8c0.6,0,1-0.5,1-1v-4.7h-0.3v-0.6h-1v0.6h-0.4v-0.6h-1v0.6h-0.4v-0.6h-1v0.6h-0.4v-0.6h-1v0.6h-0.4v-0.6h-1v0.6h-0.4v-0.6
			h-1v0.6h-0.6v-2.9c0-0.4,0.3-0.7,0.6-0.9v0.5h1v-0.6h0.4v0.6h1v-0.6h0.4v0.6h1v-0.6h0.4v0.6h1v-0.6h0.4v0.6h1v-0.6h0.4v0.6H93.8z"
			/>
		<linearGradient id="SVGID_14_" gradientUnits="userSpaceOnUse" x1="96.0732" y1="-147.5259" x2="102.2193" y2="-147.5259">
			<stop  offset="0" style="stop-color:#F7C912"/>
			<stop  offset="0.4183" style="stop-color:#F6C514"/>
			<stop  offset="0.9353" style="stop-color:#F5BA18"/>
			<stop  offset="1" style="stop-color:#F5B919"/>
		</linearGradient>
		<path class="st14" d="M102.2-147.5c0,1.7-1.4,3.1-3.1,3.1c-1.7,0-3.1-1.4-3.1-3.1c0-1.7,1.4-3.1,3.1-3.1
			C100.8-150.6,102.2-149.2,102.2-147.5z"/>
		<g>
			<linearGradient id="SVGID_15_" gradientUnits="userSpaceOnUse" x1="23.043" y1="-131.2435" x2="54.2759" y2="-131.2435">
				<stop  offset="0" style="stop-color:#F7C912"/>
				<stop  offset="0.4183" style="stop-color:#F6C514"/>
				<stop  offset="0.9353" style="stop-color:#F5BA18"/>
				<stop  offset="1" style="stop-color:#F5B919"/>
			</linearGradient>
			<path class="st15" d="M54.3-142.3l-2.2,22.1l-19.6,0c-4.3,0-6.4-2.4-6.2-7.1l1.3-11.7l-4.6-3.3l10.3,0L32.1-129
				c-0.3,1.6,0.2,2.4,1.4,2.4l2.9,0l1.6-15.6h5.5L42-126.6h4.7l1.6-15.7H54.3z"/>
		</g>
	</g>
	<g>
		<linearGradient id="SVGID_16_" gradientUnits="userSpaceOnUse" x1="24.3925" y1="-107.3868" x2="26.3948" y2="-107.3868">
			<stop  offset="0" style="stop-color:#12284C"/>
			<stop  offset="0.5649" style="stop-color:#314061"/>
			<stop  offset="0.9297" style="stop-color:#12284C"/>
		</linearGradient>
		<path class="st16" d="M26.3-107.7v0.5h-1.1v1.7h-0.8v-3.8h2v0.5h-1.2v1.1H26.3z"/>
		<linearGradient id="SVGID_17_" gradientUnits="userSpaceOnUse" x1="28.0605" y1="-107.3868" x2="30.7695" y2="-107.3868">
			<stop  offset="0" style="stop-color:#12284C"/>
			<stop  offset="0.5649" style="stop-color:#314061"/>
			<stop  offset="0.9297" style="stop-color:#12284C"/>
		</linearGradient>
		<path class="st17" d="M29-105.5c-0.7,0-1-0.2-1-0.6v-2.5c0-0.4,0.3-0.6,1-0.6h0.8c0.6,0,1,0.2,1,0.6v2.5c0,0.4-0.3,0.6-1,0.6H29z
			 M29.2-106h0.4c0.2,0,0.3-0.1,0.3-0.2v-2.4c0-0.1-0.1-0.2-0.4-0.2h-0.4c-0.2,0-0.4,0.1-0.4,0.2v2.4C28.9-106,29-106,29.2-106z"/>
		<linearGradient id="SVGID_18_" gradientUnits="userSpaceOnUse" x1="32.6456" y1="-107.3868" x2="35.2369" y2="-107.3868">
			<stop  offset="0" style="stop-color:#12284C"/>
			<stop  offset="0.5649" style="stop-color:#314061"/>
			<stop  offset="0.9297" style="stop-color:#12284C"/>
		</linearGradient>
		<path class="st18" d="M32.6-109.3h1.6c0.6,0,0.9,0.2,0.9,0.6v0.9c0,0.3-0.2,0.5-0.5,0.6l0.6,1.6h-0.8l-0.5-1.5h-0.5v1.5h-0.8
			V-109.3z M33.5-107.5H34c0.2,0,0.4-0.1,0.4-0.3v-0.8c0-0.2-0.1-0.3-0.4-0.3h-0.5V-107.5z"/>
		<linearGradient id="SVGID_19_" gradientUnits="userSpaceOnUse" x1="39.4937" y1="-107.3868" x2="42.7748" y2="-107.3868">
			<stop  offset="0" style="stop-color:#12284C"/>
			<stop  offset="0.5649" style="stop-color:#314061"/>
			<stop  offset="0.9297" style="stop-color:#12284C"/>
		</linearGradient>
		<path class="st19" d="M41.1-107.1l0.7-2.2h0.9v3.8H42l0.1-2.5l-0.6,1.8h-0.6l-0.6-1.8l0.1,2.5h-0.8v-3.8h0.9L41.1-107.1z"/>
		<linearGradient id="SVGID_20_" gradientUnits="userSpaceOnUse" x1="44.6508" y1="-107.3868" x2="47.1916" y2="-107.3868">
			<stop  offset="0" style="stop-color:#12284C"/>
			<stop  offset="0.5649" style="stop-color:#314061"/>
			<stop  offset="0.9297" style="stop-color:#12284C"/>
		</linearGradient>
		<path class="st20" d="M45.5-105.5h-0.8v-3.1c0-0.4,0.3-0.6,1-0.6h0.6c0.6,0,1,0.2,1,0.6v3.1h-0.8v-1.4h-0.9V-105.5z M46.4-107.3
			v-1.3c0-0.1-0.1-0.2-0.4-0.2h-0.2c-0.2,0-0.4,0.1-0.4,0.2v1.3H46.4z"/>
		<linearGradient id="SVGID_21_" gradientUnits="userSpaceOnUse" x1="49.0676" y1="-107.3868" x2="49.8753" y2="-107.3868">
			<stop  offset="0" style="stop-color:#12284C"/>
			<stop  offset="0.5649" style="stop-color:#314061"/>
			<stop  offset="0.9297" style="stop-color:#12284C"/>
		</linearGradient>
		<path class="st21" d="M49.1-105.5v-3.8h0.8v3.8H49.1z"/>
		<linearGradient id="SVGID_22_" gradientUnits="userSpaceOnUse" x1="51.7934" y1="-107.3868" x2="54.2752" y2="-107.3868">
			<stop  offset="0" style="stop-color:#12284C"/>
			<stop  offset="0.5649" style="stop-color:#314061"/>
			<stop  offset="0.9297" style="stop-color:#12284C"/>
		</linearGradient>
		<path class="st22" d="M53.5-107.4v-1.8h0.8v3.8h-0.8v-0.8l-0.9-1.7v2.5h-0.8v-3.8h0.8L53.5-107.4z"/>
		<linearGradient id="SVGID_23_" gradientUnits="userSpaceOnUse" x1="55.8989" y1="-107.3868" x2="58.2545" y2="-107.3868">
			<stop  offset="0" style="stop-color:#12284C"/>
			<stop  offset="0.5649" style="stop-color:#314061"/>
			<stop  offset="0.9297" style="stop-color:#12284C"/>
		</linearGradient>
		<path class="st23" d="M57.5-108.8v3.3h-0.8v-3.3h-0.8v-0.5h2.4v0.5H57.5z"/>
		<linearGradient id="SVGID_24_" gradientUnits="userSpaceOnUse" x1="59.8781" y1="-107.3868" x2="61.8804" y2="-107.3868">
			<stop  offset="0" style="stop-color:#12284C"/>
			<stop  offset="0.5649" style="stop-color:#314061"/>
			<stop  offset="0.9297" style="stop-color:#12284C"/>
		</linearGradient>
		<path class="st24" d="M59.9-105.5v-3.8h2v0.5h-1.2v1.1h1.1v0.5h-1.1v1.3h1.2v0.5H59.9z"/>
		<linearGradient id="SVGID_25_" gradientUnits="userSpaceOnUse" x1="63.6219" y1="-107.3868" x2="66.1037" y2="-107.3868">
			<stop  offset="0" style="stop-color:#12284C"/>
			<stop  offset="0.5649" style="stop-color:#314061"/>
			<stop  offset="0.9297" style="stop-color:#12284C"/>
		</linearGradient>
		<path class="st25" d="M65.3-107.4v-1.8h0.8v3.8h-0.8v-0.8l-0.9-1.7v2.5h-0.8v-3.8h0.8L65.3-107.4z"/>
		<linearGradient id="SVGID_26_" gradientUnits="userSpaceOnUse" x1="67.9798" y1="-107.3868" x2="70.5205" y2="-107.3868">
			<stop  offset="0" style="stop-color:#12284C"/>
			<stop  offset="0.5649" style="stop-color:#314061"/>
			<stop  offset="0.9297" style="stop-color:#12284C"/>
		</linearGradient>
		<path class="st26" d="M68.8-105.5H68v-3.1c0-0.4,0.3-0.6,1-0.6h0.6c0.6,0,1,0.2,1,0.6v3.1h-0.8v-1.4h-0.9V-105.5z M69.7-107.3
			v-1.3c0-0.1-0.1-0.2-0.4-0.2h-0.2c-0.2,0-0.4,0.1-0.4,0.2v1.3H69.7z"/>
		<linearGradient id="SVGID_27_" gradientUnits="userSpaceOnUse" x1="72.3545" y1="-107.3868" x2="74.8111" y2="-107.3868">
			<stop  offset="0" style="stop-color:#12284C"/>
			<stop  offset="0.5649" style="stop-color:#314061"/>
			<stop  offset="0.9297" style="stop-color:#12284C"/>
		</linearGradient>
		<path class="st27" d="M74.8-106.4v0.2c0,0.4-0.3,0.6-1,0.6h-0.5c-0.6,0-1-0.2-1-0.6v-2.5c0-0.4,0.3-0.6,1-0.6h0.5
			c0.6,0,1,0.2,1,0.6v0.4H74v-0.4c0-0.1-0.1-0.2-0.4-0.2h-0.2c-0.2,0-0.3,0.1-0.3,0.2v2.4c0,0.1,0.1,0.2,0.3,0.2h0.2
			c0.2,0,0.3-0.1,0.3-0.2v-0.2H74.8z"/>
		<linearGradient id="SVGID_28_" gradientUnits="userSpaceOnUse" x1="76.6031" y1="-107.3868" x2="78.6055" y2="-107.3868">
			<stop  offset="0" style="stop-color:#12284C"/>
			<stop  offset="0.5649" style="stop-color:#314061"/>
			<stop  offset="0.9297" style="stop-color:#12284C"/>
		</linearGradient>
		<path class="st28" d="M76.6-105.5v-3.8h2v0.5h-1.2v1.1h1.1v0.5h-1.1v1.3h1.2v0.5H76.6z"/>
		<linearGradient id="SVGID_29_" gradientUnits="userSpaceOnUse" x1="82.8118" y1="-107.3868" x2="85.3525" y2="-107.3868">
			<stop  offset="0" style="stop-color:#12284C"/>
			<stop  offset="0.5649" style="stop-color:#314061"/>
			<stop  offset="0.9297" style="stop-color:#12284C"/>
		</linearGradient>
		<path class="st29" d="M83.6-105.5h-0.8v-3.1c0-0.4,0.3-0.6,1-0.6h0.6c0.6,0,1,0.2,1,0.6v3.1h-0.8v-1.4h-0.9V-105.5z M84.5-107.3
			v-1.3c0-0.1-0.1-0.2-0.4-0.2H84c-0.2,0-0.4,0.1-0.4,0.2v1.3H84.5z"/>
		<linearGradient id="SVGID_30_" gradientUnits="userSpaceOnUse" x1="87.2285" y1="-107.3868" x2="89.7104" y2="-107.3868">
			<stop  offset="0" style="stop-color:#12284C"/>
			<stop  offset="0.5649" style="stop-color:#314061"/>
			<stop  offset="0.9297" style="stop-color:#12284C"/>
		</linearGradient>
		<path class="st30" d="M88.9-107.4v-1.8h0.8v3.8h-0.8v-0.8L88-108v2.5h-0.8v-3.8H88L88.9-107.4z"/>
		<linearGradient id="SVGID_31_" gradientUnits="userSpaceOnUse" x1="91.6285" y1="-107.3868" x2="94.1693" y2="-107.3868">
			<stop  offset="0" style="stop-color:#12284C"/>
			<stop  offset="0.5649" style="stop-color:#314061"/>
			<stop  offset="0.9297" style="stop-color:#12284C"/>
		</linearGradient>
		<path class="st31" d="M91.6-105.5v-3.8H93c0.8,0,1.1,0.2,1.1,0.7v2.5c0,0.4-0.3,0.5-1,0.5H91.6z M92.4-106H93
			c0.2,0,0.3-0.1,0.3-0.2v-2.4c0-0.2-0.1-0.3-0.4-0.3h-0.6V-106z"/>
		<linearGradient id="SVGID_32_" gradientUnits="userSpaceOnUse" x1="98.5523" y1="-107.3868" x2="101.1435" y2="-107.3868">
			<stop  offset="0" style="stop-color:#12284C"/>
			<stop  offset="0.5649" style="stop-color:#314061"/>
			<stop  offset="0.9297" style="stop-color:#12284C"/>
		</linearGradient>
		<path class="st32" d="M98.6-109.3h1.6c0.6,0,0.9,0.2,0.9,0.6v0.9c0,0.3-0.2,0.5-0.5,0.6l0.6,1.6h-0.8l-0.5-1.5h-0.5v1.5h-0.8
			V-109.3z M99.4-107.5h0.5c0.2,0,0.4-0.1,0.4-0.3v-0.8c0-0.2-0.1-0.3-0.4-0.3h-0.5V-107.5z"/>
		<linearGradient id="SVGID_33_" gradientUnits="userSpaceOnUse" x1="102.8933" y1="-107.3868" x2="104.8957" y2="-107.3868">
			<stop  offset="0" style="stop-color:#12284C"/>
			<stop  offset="0.5649" style="stop-color:#314061"/>
			<stop  offset="0.9297" style="stop-color:#12284C"/>
		</linearGradient>
		<path class="st33" d="M102.9-105.5v-3.8h2v0.5h-1.2v1.1h1.1v0.5h-1.1v1.3h1.2v0.5H102.9z"/>
		<linearGradient id="SVGID_34_" gradientUnits="userSpaceOnUse" x1="106.637" y1="-107.3868" x2="109.0852" y2="-107.3868">
			<stop  offset="0" style="stop-color:#12284C"/>
			<stop  offset="0.5649" style="stop-color:#314061"/>
			<stop  offset="0.9297" style="stop-color:#12284C"/>
		</linearGradient>
		<path class="st34" d="M106.6-109.3h1.5c0.7,0,1,0.2,1,0.6v1.1c0,0.4-0.3,0.6-1,0.6h-0.7v1.4h-0.8V-109.3z M107.4-107.3h0.5
			c0.2,0,0.3-0.1,0.3-0.2v-1.1c0-0.1-0.1-0.2-0.4-0.2h-0.5V-107.3z"/>
		<linearGradient id="SVGID_35_" gradientUnits="userSpaceOnUse" x1="110.8435" y1="-107.3868" x2="113.3842" y2="-107.3868">
			<stop  offset="0" style="stop-color:#12284C"/>
			<stop  offset="0.5649" style="stop-color:#314061"/>
			<stop  offset="0.9297" style="stop-color:#12284C"/>
		</linearGradient>
		<path class="st35" d="M111.7-105.5h-0.8v-3.1c0-0.4,0.3-0.6,1-0.6h0.6c0.6,0,1,0.2,1,0.6v3.1h-0.8v-1.4h-0.9V-105.5z M112.6-107.3
			v-1.3c0-0.1-0.1-0.2-0.4-0.2H112c-0.2,0-0.4,0.1-0.4,0.2v1.3H112.6z"/>
		<linearGradient id="SVGID_36_" gradientUnits="userSpaceOnUse" x1="115.2603" y1="-107.3868" x2="116.0679" y2="-107.3868">
			<stop  offset="0" style="stop-color:#12284C"/>
			<stop  offset="0.5649" style="stop-color:#314061"/>
			<stop  offset="0.9297" style="stop-color:#12284C"/>
		</linearGradient>
		<path class="st36" d="M115.3-105.5v-3.8h0.8v3.8H115.3z"/>
		<linearGradient id="SVGID_37_" gradientUnits="userSpaceOnUse" x1="117.9861" y1="-107.3868" x2="120.5773" y2="-107.3868">
			<stop  offset="0" style="stop-color:#12284C"/>
			<stop  offset="0.5649" style="stop-color:#314061"/>
			<stop  offset="0.9297" style="stop-color:#12284C"/>
		</linearGradient>
		<path class="st37" d="M118-109.3h1.6c0.6,0,0.9,0.2,0.9,0.6v0.9c0,0.3-0.2,0.5-0.5,0.6l0.6,1.6h-0.8l-0.5-1.5h-0.5v1.5H118V-109.3
			z M118.8-107.5h0.5c0.2,0,0.4-0.1,0.4-0.3v-0.8c0-0.2-0.1-0.3-0.4-0.3h-0.5V-107.5z"/>
	</g>
	<g>
		<path class="st38" d="M26.1-107.8v0.5H25v1.7h-0.8v-3.8h2v0.5H25v1.1H26.1z"/>
		<path class="st38" d="M28.8-105.7c-0.7,0-1-0.2-1-0.6v-2.5c0-0.4,0.3-0.6,1-0.6h0.8c0.6,0,1,0.2,1,0.6v2.5c0,0.4-0.3,0.6-1,0.6
			H28.8z M29-106.1h0.4c0.2,0,0.3-0.1,0.3-0.2v-2.4c0-0.1-0.1-0.2-0.4-0.2H29c-0.2,0-0.4,0.1-0.4,0.2v2.4
			C28.7-106.2,28.8-106.1,29-106.1z"/>
		<path class="st38" d="M32.4-109.4H34c0.6,0,0.9,0.2,0.9,0.6v0.9c0,0.3-0.2,0.5-0.5,0.6l0.6,1.6h-0.8l-0.5-1.5h-0.5v1.5h-0.8
			V-109.4z M33.3-107.6h0.5c0.2,0,0.4-0.1,0.4-0.3v-0.8c0-0.2-0.1-0.3-0.4-0.3h-0.5V-107.6z"/>
		<path class="st38" d="M40.9-107.2l0.7-2.2h0.9v3.8h-0.8l0.1-2.5l-0.6,1.8h-0.6l-0.6-1.8l0.1,2.5h-0.8v-3.8h0.9L40.9-107.2z"/>
		<path class="st38" d="M45.3-105.7h-0.8v-3.1c0-0.4,0.3-0.6,1-0.6H46c0.6,0,1,0.2,1,0.6v3.1h-0.8v-1.4h-0.9V-105.7z M46.2-107.5
			v-1.3c0-0.1-0.1-0.2-0.4-0.2h-0.2c-0.2,0-0.4,0.1-0.4,0.2v1.3H46.2z"/>
		<path class="st38" d="M48.9-105.7v-3.8h0.8v3.8H48.9z"/>
		<path class="st38" d="M53.3-107.6v-1.8h0.8v3.8h-0.8v-0.8l-0.9-1.7v2.5h-0.8v-3.8h0.8L53.3-107.6z"/>
		<path class="st38" d="M57.3-109v3.3h-0.8v-3.3h-0.8v-0.5h2.4v0.5H57.3z"/>
		<path class="st38" d="M59.7-105.7v-3.8h2v0.5h-1.2v1.1h1.1v0.5h-1.1v1.3h1.2v0.5H59.7z"/>
		<path class="st38" d="M65.1-107.6v-1.8h0.8v3.8h-0.8v-0.8l-0.9-1.7v2.5h-0.8v-3.8h0.8L65.1-107.6z"/>
		<path class="st38" d="M68.6-105.7h-0.8v-3.1c0-0.4,0.3-0.6,1-0.6h0.6c0.6,0,1,0.2,1,0.6v3.1h-0.8v-1.4h-0.9V-105.7z M69.5-107.5
			v-1.3c0-0.1-0.1-0.2-0.4-0.2h-0.2c-0.2,0-0.4,0.1-0.4,0.2v1.3H69.5z"/>
		<path class="st38" d="M74.6-106.6v0.2c0,0.4-0.3,0.6-1,0.6h-0.5c-0.6,0-1-0.2-1-0.6v-2.5c0-0.4,0.3-0.6,1-0.6h0.5
			c0.6,0,1,0.2,1,0.6v0.4h-0.8v-0.4c0-0.1-0.1-0.2-0.4-0.2h-0.2c-0.2,0-0.3,0.1-0.3,0.2v2.4c0,0.1,0.1,0.2,0.3,0.2h0.2
			c0.2,0,0.3-0.1,0.3-0.2v-0.2H74.6z"/>
		<path class="st38" d="M76.4-105.7v-3.8h2v0.5h-1.2v1.1h1.1v0.5h-1.1v1.3h1.2v0.5H76.4z"/>
		<path class="st38" d="M83.4-105.7h-0.8v-3.1c0-0.4,0.3-0.6,1-0.6h0.6c0.6,0,1,0.2,1,0.6v3.1h-0.8v-1.4h-0.9V-105.7z M84.3-107.5
			v-1.3c0-0.1-0.1-0.2-0.4-0.2h-0.2c-0.2,0-0.4,0.1-0.4,0.2v1.3H84.3z"/>
		<path class="st38" d="M88.7-107.6v-1.8h0.8v3.8h-0.8v-0.8l-0.9-1.7v2.5H87v-3.8h0.8L88.7-107.6z"/>
		<path class="st38" d="M91.4-105.7v-3.8h1.4c0.8,0,1.1,0.2,1.1,0.7v2.5c0,0.4-0.3,0.5-1,0.5H91.4z M92.2-106.1h0.6
			c0.2,0,0.3-0.1,0.3-0.2v-2.4c0-0.2-0.1-0.3-0.4-0.3h-0.6V-106.1z"/>
		<path class="st38" d="M98.4-109.4h1.6c0.6,0,0.9,0.2,0.9,0.6v0.9c0,0.3-0.2,0.5-0.5,0.6l0.6,1.6h-0.8l-0.5-1.5h-0.5v1.5h-0.8
			V-109.4z M99.2-107.6h0.5c0.2,0,0.4-0.1,0.4-0.3v-0.8c0-0.2-0.1-0.3-0.4-0.3h-0.5V-107.6z"/>
		<path class="st38" d="M102.7-105.7v-3.8h2v0.5h-1.2v1.1h1.1v0.5h-1.1v1.3h1.2v0.5H102.7z"/>
		<path class="st38" d="M106.4-109.4h1.5c0.7,0,1,0.2,1,0.6v1.1c0,0.4-0.3,0.6-1,0.6h-0.7v1.4h-0.8V-109.4z M107.2-107.5h0.5
			c0.2,0,0.3-0.1,0.3-0.2v-1.1c0-0.1-0.1-0.2-0.4-0.2h-0.5V-107.5z"/>
		<path class="st38" d="M111.5-105.7h-0.8v-3.1c0-0.4,0.3-0.6,1-0.6h0.6c0.6,0,1,0.2,1,0.6v3.1h-0.8v-1.4h-0.9V-105.7z M112.4-107.5
			v-1.3c0-0.1-0.1-0.2-0.4-0.2h-0.2c-0.2,0-0.4,0.1-0.4,0.2v1.3H112.4z"/>
		<path class="st38" d="M115.1-105.7v-3.8h0.8v3.8H115.1z"/>
		<path class="st38" d="M117.8-109.4h1.6c0.6,0,0.9,0.2,0.9,0.6v0.9c0,0.3-0.2,0.5-0.5,0.6l0.6,1.6h-0.8l-0.5-1.5h-0.5v1.5h-0.8
			V-109.4z M118.6-107.6h0.5c0.2,0,0.4-0.1,0.4-0.3v-0.8c0-0.2-0.1-0.3-0.4-0.3h-0.5V-107.6z"/>
	</g>
</g>
<path class="st0" d="M115.8,52.4H0L0,0l115.8,0C130.3,0,142,11.7,142,26.2v0C142,40.6,130.3,52.4,115.8,52.4z"/>
<g>
	<g>
		<g>
			<path class="st39" d="M116.3,24c-0.1,0-0.3,0-0.4,0L109,12.1c-0.2-0.4-0.7-0.5-1-0.3c-0.4,0.2-0.5,0.7-0.3,1l6.9,11.9
				c-0.3,0.4-0.5,0.9-0.5,1.5c0,1,0.6,1.8,1.5,2.1v16.8c0,0.4,0.3,0.8,0.8,0.8c0.4,0,0.8-0.3,0.8-0.8V28.4c0.9-0.3,1.5-1.1,1.5-2.1
				C118.5,25,117.5,24,116.3,24z M116.3,27c-0.4,0-0.8-0.3-0.8-0.8s0.3-0.8,0.8-0.8c0.4,0,0.8,0.3,0.8,0.8
				C117,26.7,116.7,27,116.3,27z"/>
		</g>
	</g>
	<g>
		<g>
			<path class="st39" d="M134.5,8.1c-4.9-4.9-11.3-7.5-18.2-7.5c-6.9,0-13.3,2.7-18.2,7.5s-7.5,11.3-7.5,18.2s2.7,13.3,7.5,18.2
				s11.3,7.5,18.2,7.5c6.9,0,13.3-2.7,18.2-7.5s7.5-11.3,7.5-18.2S139.3,13,134.5,8.1z M116.3,50.5c-13.3,0-24.2-10.9-24.2-24.2
				s10.9-24.2,24.2-24.2s24.2,10.9,24.2,24.2S129.6,50.5,116.3,50.5z"/>
		</g>
	</g>
	<g>
		<g>
			<circle class="st39" cx="116.3" cy="7.4" r="0.8"/>
		</g>
	</g>
	<g>
		<g>
			<circle class="st39" cx="106.8" cy="9.9" r="0.8"/>
		</g>
	</g>
	<g>
		<g>
			<circle class="st39" cx="99.9" cy="16.8" r="0.8"/>
		</g>
	</g>
	<g>
		<g>
			<circle class="st39" cx="97.4" cy="26.3" r="0.8"/>
		</g>
	</g>
	<g>
		<g>
			<circle class="st39" cx="99.9" cy="35.8" r="0.8"/>
		</g>
	</g>
	<g>
		<g>
			<circle class="st39" cx="106.8" cy="42.7" r="0.8"/>
		</g>
	</g>
	<g>
		<g>
			<circle class="st39" cx="125.7" cy="42.7" r="0.8"/>
		</g>
	</g>
	<g>
		<g>
			<circle class="st39" cx="132.7" cy="35.8" r="0.8"/>
		</g>
	</g>
	<g>
		<g>
			<circle class="st39" cx="135.2" cy="26.3" r="0.8"/>
		</g>
	</g>
	<g>
		<g>
			<circle class="st39" cx="132.7" cy="16.8" r="0.8"/>
		</g>
	</g>
	<g>
		<g>
			<circle class="st39" cx="125.7" cy="9.9" r="0.8"/>
		</g>
	</g>
	<g>
		<g>
			<path class="st39" d="M132.3,10.2c-4.3-4.3-10-6.6-16-6.6c-5.5,0-10.8,2-14.9,5.6c-0.3,0.3-0.3,0.7-0.1,1.1
				c0.3,0.3,0.7,0.3,1.1,0.1c3.9-3.4,8.8-5.2,13.9-5.2c11.7,0,21.2,9.5,21.2,21.2s-9.5,21.2-21.2,21.2S95.1,38,95.1,26.3
				c0-5.1,1.9-10.1,5.2-13.9c0.3-0.3,0.2-0.8-0.1-1.1c-0.3-0.3-0.8-0.2-1.1,0.1c-3.6,4.1-5.6,9.4-5.6,14.9c0,6.1,2.4,11.8,6.6,16
				s10,6.6,16,6.6s11.8-2.4,16-6.6s6.6-10,6.6-16S136.6,14.5,132.3,10.2z"/>
		</g>
	</g>
</g>
<g>
	<path class="st39" d="M43.3,6.3v13.9c0,0.1,0,0.1,0,0.2h1.2v3.1h-0.9l-0.9-1.1h-0.1c-0.6,0.7-1.4,1.1-2.3,1.1H27.1
		c-1.3,0-2.4-0.4-3.3-1.3c-0.9-0.9-1.3-2-1.3-3.3v-3.2l1.9-1.5h1.8v4.7c0,0.4,0.1,0.8,0.4,1.1c0.3,0.3,0.7,0.5,1.1,0.5h11.6
		c0.1,0,0.2,0,0.3-0.1c0.1,0,0.1-0.1,0.1-0.2V6.3H43.3z M31,14.2c-0.2-0.3-0.3-0.7-0.4-1c0-0.1-0.1-0.3-0.1-0.5c0,0,0-0.1,0-0.1
		c0-0.9,0.3-1.6,0.9-2.1c0.6-0.5,1.3-0.8,2.3-0.8c0.5,0,1,0.1,1.4,0.2v1.6c-0.4-0.1-0.7-0.1-1-0.1c-0.9,0-1.4,0.5-1.4,1.4
		c0,0.4,0.1,0.7,0.2,0.9c0.3,0.4,0.7,0.6,1.3,0.6h2.1v0.7L35.6,16h-6.3v-1.8H31z"/>
	<path class="st39" d="M52.4,6.3v13.9c0,0.1,0,0.1,0,0.2h1.2v3.1h-0.8l-1-1.1h0c-0.6,0.7-1.4,1.1-2.4,1.1h-5v-3.1h4
		c0.1,0,0.2,0,0.2-0.1c0.1-0.1,0.1-0.2,0.1-0.3V6.3H52.4z"/>
	<path class="st39" d="M61.5,15.4c2-2.2,4.4-3.3,7.2-3.3c2,0,3.7,0.6,5,1.8c1.2,1.1,1.9,2.5,1.9,4.2v1.3c0,0.2,0,0.5,0,0.9h0.7v3.1
		h-0.5l-0.9-1.1h0c-0.6,0.7-1.4,1.1-2.3,1.1H53.4v-3.1h4.3v-8h3.7V15.4z M71.8,18.6c0-1-0.4-1.9-1.3-2.5c-0.7-0.5-1.5-0.7-2.3-0.7
		c-1.9,0-3.7,0.9-5.3,2.8c-0.1,0.2-0.3,0.4-0.5,0.7c-0.4,0.7-0.8,1.2-1,1.5h10c0.2,0,0.4-0.1,0.4-0.3V18.6z"/>
	<path class="st39" d="M84.2,12.5v8.1c0,0.7-0.2,1.3-0.7,1.9c-0.6,0.7-1.4,1.1-2.3,1.1h-5v-3.1h4c0.1,0,0.2,0,0.2-0.1
		c0.1-0.1,0.1-0.2,0.1-0.3v-7.6H84.2z M82.3,7.2c0.5,0,1,0.2,1.3,0.5s0.5,0.8,0.5,1.3c0,0.5-0.2,1-0.5,1.3s-0.8,0.6-1.3,0.6
		c-0.5,0-1-0.2-1.3-0.6c-0.4-0.4-0.6-0.8-0.6-1.3c0-0.5,0.2-1,0.6-1.3C81.4,7.4,81.8,7.2,82.3,7.2z"/>
	<path class="st39" d="M27.1,37.9v5c0,0.1,0,0.2,0.1,0.2c0.1,0.1,0.1,0.1,0.2,0.1h0.4v1.4H27c-0.4,0-0.8-0.2-1.1-0.5
		c-0.5,0.4-1.1,0.6-1.7,0.6c-0.7,0-1.3-0.2-1.9-0.7c-0.7-0.7-1-1.5-1-2.6c0-1,0.3-1.8,1-2.5c0.6-0.6,1.3-0.9,2.2-0.9
		c0.5,0,1,0.1,1.4,0.3l0.6-0.5H27.1z M25.5,39.7c-0.3-0.1-0.6-0.2-0.9-0.2c-0.5,0-0.9,0.2-1.2,0.5c-0.3,0.4-0.5,0.8-0.5,1.4
		s0.1,1,0.4,1.4s0.7,0.5,1.2,0.5c0.3,0,0.7-0.1,1-0.2V39.7z M24.2,35.3c0.2,0,0.5,0.1,0.6,0.3c0.2,0.2,0.3,0.4,0.3,0.6
		c0,0.2-0.1,0.4-0.3,0.6c-0.2,0.2-0.4,0.3-0.6,0.3c-0.2,0-0.5-0.1-0.6-0.3c-0.2-0.2-0.3-0.4-0.3-0.6c0-0.2,0.1-0.5,0.3-0.6
		C23.7,35.3,23.9,35.3,24.2,35.3z M26.3,35.3c0.2,0,0.5,0.1,0.6,0.3c0.2,0.2,0.3,0.4,0.3,0.6c0,0.2-0.1,0.4-0.3,0.6
		c-0.2,0.2-0.4,0.3-0.6,0.3c-0.2,0-0.4-0.1-0.6-0.3c-0.2-0.2-0.3-0.4-0.3-0.6c0-0.2,0.1-0.5,0.3-0.6C25.8,35.3,26,35.3,26.3,35.3z"
		/>
	<path class="st39" d="M30.5,43.2c-0.2-0.2-0.3-0.5-0.4-0.8c-0.1-0.4-0.2-0.8-0.2-1.2c0-1,0.4-1.8,1.1-2.4c0.6-0.5,1.4-0.7,2.3-0.7
		c0.5,0,1,0.1,1.5,0.2v1.3c-0.5-0.1-1-0.2-1.3-0.2c-1.3,0-1.9,0.6-1.9,1.9c0,0.4,0.1,0.8,0.3,1.1c0.3,0.5,0.8,0.8,1.4,0.8h2.7v0.6
		l-0.7,0.9h-7.5v-1.4H30.5z"/>
	<path class="st39" d="M39.1,34.8v8.1c0,0.1,0,0.2,0.1,0.2c0.1,0.1,0.1,0.1,0.3,0.1h0.4v1.4h-0.9c-0.4,0-0.7-0.1-1-0.4
		c-0.3-0.3-0.5-0.7-0.5-1.1v-8.3H39.1z"/>
	<path class="st39" d="M54.3,38.3v4.8c0,0.4-0.1,0.8-0.4,1.1c-0.3,0.3-0.6,0.4-1.1,0.4h-2.9l-0.5-0.6h0c-0.3,0.4-0.7,0.6-1.2,0.6
		h-2.9l-0.5-0.6h0c-0.3,0.4-0.7,0.6-1.2,0.6h-3.9v-1.4h3.4c0.2,0,0.3-0.1,0.3-0.3v-3h1.7v2.8c0,0.3,0,0.5,0,0.6h2.6
		c0.2,0,0.3-0.1,0.3-0.3v-3.8h1.7v3.7c0,0.1,0,0.1,0,0.2c0,0.1,0,0.2,0,0.2h2.6c0.2,0,0.3-0.1,0.3-0.3v-4.6H54.3z"/>
	<path class="st39" d="M67.9,34.8v9.5c0,1.1-0.3,2-1,2.6c-0.7,0.7-1.7,1-2.9,1h-1.4c-1.2,0-2.2-0.3-2.8-1c-0.7-0.6-1.1-1.5-1.1-2.7
		v-2.5l0.9-0.7h0.8v3c0,0.9,0.2,1.5,0.7,1.8c0.4,0.4,1.2,0.5,2.3,0.5c1,0,1.8-0.2,2.2-0.5c0.5-0.4,0.7-1,0.7-1.9v-9.4H67.9z"/>
	<path class="st39" d="M77.1,34.8v8.1c0,0.2,0,0.3,0,0.4h0.7v1.4h-0.5l-0.5-0.6h0c-0.2,0.2-0.3,0.3-0.6,0.4
		c-0.2,0.1-0.4,0.1-0.6,0.1h-5.5l-0.7-0.9v-0.6h3.3l-2.3-6.8H72l2.3,6.8H75c0.1,0,0.2,0,0.3-0.1c0.1-0.1,0.1-0.2,0.1-0.2v-8.1H77.1z
		"/>
	<path class="st39" d="M79.5,38.5c0.9-0.3,1.7-0.4,2.4-0.4c1.1,0,2,0.3,2.7,1c0.6,0.6,0.9,1.4,0.9,2.4v1.6c0,0.4-0.1,0.7-0.4,1
		c-0.3,0.3-0.7,0.5-1.1,0.5h-6.3v-1.4h5.8c0.2,0,0.3-0.1,0.3-0.3v-1.2c0-0.6-0.2-1.1-0.6-1.5c-0.4-0.4-1-0.6-1.7-0.6
		c-0.4,0-1.1,0.1-2,0.3V38.5z M82,35.3c0.2,0,0.5,0.1,0.6,0.3c0.2,0.2,0.3,0.4,0.3,0.6c0,0.2-0.1,0.4-0.3,0.6
		C82.5,36.9,82.3,37,82,37c-0.2,0-0.4-0.1-0.6-0.3c-0.2-0.2-0.3-0.4-0.3-0.6c0-0.2,0.1-0.5,0.3-0.6C81.6,35.3,81.8,35.3,82,35.3z"/>
</g>
</svg>
